ply
format ascii 1.0
comment Created for SotC explore OOTBGE
element vertex 762
property float x
property float y
property float z
property float nx
property float ny
property float nz
property uchar red
property uchar green
property uchar blue
element face 530
property list uchar uint vertex_indices
end_header
-0.26828 -0.52862 -1.77090 0.0 0.0 -1.0 255 255 255
-0.33672 -0.66753 -1.67108 0.0 0.0 -1.0 255 255 255
-0.26828 -0.52862 -1.77090 0.0 0.0 -1.0 255 255 255
-0.46165 -0.37435 -1.77556 0.0 0.0 -1.0 255 255 255
-0.36171 -0.31587 -1.87687 0.0 0.0 -1.0 255 255 255
-0.45267 -0.67251 -1.86253 0.0 0.0 -1.0 255 255 255
-0.16786 -0.30841 -1.85586 0.0 0.0 -1.0 255 255 255
-0.10567 -0.49933 -1.88178 0.0 0.0 -1.0 255 255 255
-0.26828 -0.52862 -1.77090 0.0 0.0 -1.0 255 255 255
-0.13965 -0.69831 -1.75025 0.0 0.0 -1.0 255 255 255
-0.33672 -0.66753 -1.67108 0.0 0.0 -1.0 255 255 255
-0.18612 -1.09533 -1.37701 0.0 0.0 -1.0 255 255 255
-0.34147 -0.87582 -1.31859 0.0 0.0 -1.0 255 255 255
-0.23812 -0.78170 -1.25270 0.0 0.0 -1.0 255 255 255
-0.50338 -0.47459 -1.20983 0.0 0.0 -1.0 255 255 255
-0.23477 -0.53211 -0.88378 0.0 0.0 -1.0 255 255 255
-0.50350 -0.30502 -0.79317 0.0 0.0 -1.0 255 255 255
-0.16582 -0.09308 -0.78041 0.0 0.0 -1.0 255 255 255
-0.51535 0.01988 -0.52522 0.0 0.0 -1.0 255 255 255
-0.38863 0.34343 -0.76976 0.0 0.0 -1.0 255 255 255
-0.47481 0.50774 -0.59477 0.0 0.0 -1.0 255 255 255
-0.50500 0.67581 -0.75314 0.0 0.0 -1.0 255 255 255
-0.55586 0.59732 -0.86532 0.0 0.0 -1.0 255 255 255
-0.55289 0.81245 -0.96788 0.0 0.0 -1.0 255 255 255
-0.60508 0.69652 -1.42165 0.0 0.0 -1.0 255 255 255
-0.51906 0.86898 -1.43596 0.0 0.0 -1.0 255 255 255
-0.50101 0.71695 -1.63800 0.0 0.0 -1.0 255 255 255
-0.35285 1.04876 -1.80054 0.0 0.0 -1.0 255 255 255
-0.59888 0.78194 -1.90391 0.0 0.0 -1.0 255 255 255
-0.19611 1.26814 -1.88518 0.0 0.0 -1.0 255 255 255
-0.59377 1.38044 -1.88111 0.0 0.0 -1.0 255 255 255
-0.40467 1.37110 -1.83566 0.0 0.0 -1.0 255 255 255
-0.61370 1.36225 -1.79642 0.0 0.0 -1.0 255 255 255
-0.62716 1.18625 -1.76401 0.0 0.0 -1.0 255 255 255
-0.81124 1.39642 -1.87024 0.0 0.0 -1.0 255 255 255
-0.86464 1.13701 -1.77619 0.0 0.0 -1.0 255 255 255
-0.87527 1.04869 -1.88044 0.0 0.0 -1.0 255 255 255
-0.35285 1.04876 -1.80054 0.0 0.0 -1.0 255 255 255
-0.51906 0.86898 -1.43596 0.0 0.0 -1.0 255 255 255
-0.60872 1.06844 -1.58702 0.0 0.0 -1.0 255 255 255
-0.65921 0.97887 -1.38501 0.0 0.0 -1.0 255 255 255
-0.74923 0.87268 -1.47770 0.0 0.0 -1.0 255 255 255
-0.93182 0.72071 -1.01394 0.0 0.0 -1.0 255 255 255
-0.60508 0.69652 -1.42165 0.0 0.0 -1.0 255 255 255
-0.66825 0.51422 -1.23923 0.0 0.0 -1.0 255 255 255
-0.55586 0.59732 -0.86532 0.0 0.0 -1.0 255 255 255
-0.80870 0.53456 -0.85942 0.0 0.0 -1.0 255 255 255
-0.86146 0.34584 -0.65901 0.0 0.0 -1.0 255 255 255
-0.96143 0.92625 -0.61245 0.0 0.0 -1.0 255 255 255
-0.98639 0.64841 -0.47900 0.0 0.0 -1.0 255 255 255
-0.91175 0.95113 -0.43316 0.0 0.0 -1.0 255 255 255
-1.03416 0.67625 -0.05480 0.0 0.0 -1.0 255 255 255
-1.02385 0.92050 0.10122 0.0 0.0 -1.0 255 255 255
-0.74685 0.50215 0.35486 0.0 0.0 -1.0 255 255 255
-0.63187 0.85604 0.48768 0.0 0.0 -1.0 255 255 255
0.00000 0.34884 0.66329 0.0 0.0 -1.0 255 255 255
0.00000 0.84287 0.78727 0.0 0.0 -1.0 255 255 255
0.63187 0.85604 0.48768 0.0 0.0 -1.0 255 255 255
-0.02318 1.42416 0.37196 0.0 0.0 -1.0 255 255 255
0.52004 1.29489 0.28615 0.0 0.0 -1.0 255 255 255
0.26963 1.55444 0.24199 0.0 0.0 -1.0 255 255 255
0.46404 1.42696 -0.14642 0.0 0.0 -1.0 255 255 255
0.52911 1.49779 0.09928 0.0 0.0 -1.0 255 255 255
0.38164 1.61575 0.01269 0.0 0.0 -1.0 255 255 255
0.24705 1.72425 0.10986 0.0 0.0 -1.0 255 255 255
0.26141 2.04213 -0.11305 0.0 0.0 -1.0 255 255 255
0.00000 1.84414 0.20114 0.0 0.0 -1.0 255 255 255
-0.20776 2.07908 -0.12240 0.0 0.0 -1.0 255 255 255
-0.24684 1.75364 0.10651 0.0 0.0 -1.0 255 255 255
-0.38038 1.61692 0.01224 0.0 0.0 -1.0 255 255 255
-0.28832 1.58662 0.23064 0.0 0.0 -1.0 255 255 255
-0.52911 1.49779 0.09928 0.0 0.0 -1.0 255 255 255
-0.53530 1.35670 0.09268 0.0 0.0 -1.0 255 255 255
-0.37671 1.29394 -0.48564 0.0 0.0 -1.0 255 255 255
-0.49267 1.31039 -0.17774 0.0 0.0 -1.0 255 255 255
-0.18680 1.18424 -0.74807 0.0 0.0 -1.0 255 255 255
-0.51486 1.10614 -0.44833 0.0 0.0 -1.0 255 255 255
-0.23033 1.01925 -1.17800 0.0 0.0 -1.0 255 255 255
-0.52224 1.05052 -0.57164 0.0 0.0 -1.0 255 255 255
0.00000 1.08904 -1.01494 0.0 0.0 -1.0 255 255 255
-0.43481 0.78050 -0.78410 0.0 0.0 -1.0 255 255 255
0.00000 0.74186 -1.18632 0.0 0.0 -1.0 255 255 255
-0.05870 0.35756 -1.18885 0.0 0.0 -1.0 255 255 255
0.27485 0.38519 -1.04264 0.0 0.0 -1.0 255 255 255
0.00353 -0.02537 -0.93932 0.0 0.0 -1.0 255 255 255
0.17798 0.00142 -0.74729 0.0 0.0 -1.0 255 255 255
0.24931 -0.63963 -0.84692 0.0 0.0 -1.0 255 255 255
0.50350 -0.30502 -0.79317 0.0 0.0 -1.0 255 255 255
0.23472 -0.52384 -0.92107 0.0 0.0 -1.0 255 255 255
0.50338 -0.47459 -1.20983 0.0 0.0 -1.0 255 255 255
0.23697 -0.78233 -1.25186 0.0 0.0 -1.0 255 255 255
0.34147 -0.87582 -1.31859 0.0 0.0 -1.0 255 255 255
0.18590 -1.09547 -1.37600 0.0 0.0 -1.0 255 255 255
0.33672 -0.66753 -1.67108 0.0 0.0 -1.0 255 255 255
0.18658 -0.66282 -1.70249 0.0 0.0 -1.0 255 255 255
0.26828 -0.52862 -1.77090 0.0 0.0 -1.0 255 255 255
0.10567 -0.49933 -1.88178 0.0 0.0 -1.0 255 255 255
0.16786 -0.30841 -1.85586 0.0 0.0 -1.0 255 255 255
0.45267 -0.67251 -1.86253 0.0 0.0 -1.0 255 255 255
0.36171 -0.31587 -1.87687 0.0 0.0 -1.0 255 255 255
0.46165 -0.37435 -1.77556 0.0 0.0 -1.0 255 255 255
0.26828 -0.52862 -1.77090 0.0 0.0 -1.0 255 255 255
0.33672 -0.66753 -1.67108 0.0 0.0 -1.0 255 255 255
-0.40104 -1.00838 -0.80998 0.0 0.0 -1.0 255 255 255
-0.54551 -1.22636 -0.59656 0.0 0.0 -1.0 255 255 255
-0.41305 -1.16595 -0.62103 0.0 0.0 -1.0 255 255 255
-0.51576 -1.11605 -0.06700 0.0 0.0 -1.0 255 255 255
-0.40863 -0.95996 0.05770 0.0 0.0 -1.0 255 255 255
-0.77122 -0.61960 -0.00795 0.0 0.0 -1.0 255 255 255
-0.56980 -0.32988 -0.04148 0.0 0.0 -1.0 255 255 255
-0.85967 -0.60347 -0.35287 0.0 0.0 -1.0 255 255 255
-0.80222 -0.54035 -0.71674 0.0 0.0 -1.0 255 255 255
-0.54551 -1.22636 -0.59656 0.0 0.0 -1.0 255 255 255
-0.68527 -0.84728 -0.81858 0.0 0.0 -1.0 255 255 255
-0.40104 -1.00838 -0.80998 0.0 0.0 -1.0 255 255 255
-0.60720 -1.01426 -1.00868 0.0 0.0 -1.0 255 255 255
-0.28973 -1.12497 -1.09513 0.0 0.0 -1.0 255 255 255
-0.34147 -0.87582 -1.31859 0.0 0.0 -1.0 255 255 255
-0.45994 -1.14612 -1.32637 0.0 0.0 -1.0 255 255 255
-0.33031 -0.98288 -1.59612 0.0 0.0 -1.0 255 255 255
-0.31320 -1.25135 -1.35028 0.0 0.0 -1.0 255 255 255
-0.18612 -1.09533 -1.37701 0.0 0.0 -1.0 255 255 255
-0.28973 -1.12497 -1.09513 0.0 0.0 -1.0 255 255 255
-0.23812 -0.78170 -1.25270 0.0 0.0 -1.0 255 255 255
-0.23477 -0.53211 -0.88378 0.0 0.0 -1.0 255 255 255
-0.18680 1.18424 -0.74807 0.0 0.0 -1.0 255 255 255
-0.23033 1.01925 -1.17800 0.0 0.0 -1.0 255 255 255
-0.18680 1.18424 -0.74807 0.0 0.0 -1.0 255 255 255
0.14754 1.23193 -0.72022 0.0 0.0 -1.0 255 255 255
-0.00011 1.37203 -0.80582 0.0 0.0 -1.0 255 255 255
0.32076 1.31478 -0.50261 0.0 0.0 -1.0 255 255 255
0.40141 1.33950 -0.57186 0.0 0.0 -1.0 255 255 255
0.46497 1.34558 -0.14013 0.0 0.0 -1.0 255 255 255
0.46404 1.42696 -0.14642 0.0 0.0 -1.0 255 255 255
0.52004 1.29489 0.28615 0.0 0.0 -1.0 255 255 255
-0.10567 -0.49933 -1.88178 0.0 0.0 -1.0 255 255 255
-0.45267 -0.67251 -1.86253 0.0 0.0 -1.0 255 255 255
-0.21713 -0.77053 -1.88382 0.0 0.0 -1.0 255 255 255
-0.28402 -0.98834 -1.73566 0.0 0.0 -1.0 255 255 255
-0.13965 -0.69831 -1.75025 0.0 0.0 -1.0 255 255 255
-0.18612 -1.09533 -1.37701 0.0 0.0 -1.0 255 255 255
-0.40104 -1.00838 -0.80998 0.0 0.0 -1.0 255 255 255
-0.41305 -1.16595 -0.62103 0.0 0.0 -1.0 255 255 255
0.00000 -1.13737 -0.87486 0.0 0.0 -1.0 255 255 255
-0.21254 -1.50766 -0.94897 0.0 0.0 -1.0 255 255 255
0.00211 -1.38447 -1.17392 0.0 0.0 -1.0 255 255 255
0.00264 -1.78617 -1.32814 0.0 0.0 -1.0 255 255 255
0.10217 -1.88399 -1.24307 0.0 0.0 -1.0 255 255 255
0.18950 -2.23235 -1.75251 0.0 0.0 -1.0 255 255 255
0.00589 -2.18390 -1.45328 0.0 0.0 -1.0 255 255 255
0.00000 -2.24565 -1.88344 0.0 0.0 -1.0 255 255 255
-0.20896 -2.21510 -1.67428 0.0 0.0 -1.0 255 255 255
0.00264 -1.78617 -1.32814 0.0 0.0 -1.0 255 255 255
-0.21254 -1.50766 -0.94897 0.0 0.0 -1.0 255 255 255
0.23697 -0.78233 -1.25186 0.0 0.0 -1.0 255 255 255
0.23472 -0.52384 -0.92107 0.0 0.0 -1.0 255 255 255
0.36855 -1.00231 -0.81807 0.0 0.0 -1.0 255 255 255
0.24931 -0.63963 -0.84692 0.0 0.0 -1.0 255 255 255
-0.00444 -0.73069 -1.05161 0.0 0.0 -1.0 255 255 255
0.00353 -0.02537 -0.93932 0.0 0.0 -1.0 255 255 255
-0.16582 -0.09308 -0.78041 0.0 0.0 -1.0 255 255 255
-0.38863 0.34343 -0.76976 0.0 0.0 -1.0 255 255 255
0.50350 -0.30502 -0.79317 0.0 0.0 -1.0 255 255 255
0.50338 -0.47459 -1.20983 0.0 0.0 -1.0 255 255 255
0.50350 -0.30502 -0.79317 0.0 0.0 -1.0 255 255 255
0.76869 -0.47687 -0.73394 0.0 0.0 -1.0 255 255 255
0.66845 -0.33417 -0.56005 0.0 0.0 -1.0 255 255 255
0.86232 -0.59724 -0.41782 0.0 0.0 -1.0 255 255 255
0.60116 -0.29934 -0.13834 0.0 0.0 -1.0 255 255 255
0.77122 -0.61960 -0.00795 0.0 0.0 -1.0 255 255 255
0.51226 -0.44481 0.04266 0.0 0.0 -1.0 255 255 255
0.39184 -0.99810 0.03419 0.0 0.0 -1.0 255 255 255
-0.01683 -0.74306 0.27960 0.0 0.0 -1.0 255 255 255
0.06789 -1.25318 -0.03137 0.0 0.0 -1.0 255 255 255
-0.40863 -0.95996 0.05770 0.0 0.0 -1.0 255 255 255
-0.36453 -1.27825 -0.27374 0.0 0.0 -1.0 255 255 255
-0.41305 -1.16595 -0.62103 0.0 0.0 -1.0 255 255 255
-0.18749 -1.41780 -0.47857 0.0 0.0 -1.0 255 255 255
-0.21254 -1.50766 -0.94897 0.0 0.0 -1.0 255 255 255
0.00000 -1.54193 -0.79003 0.0 0.0 -1.0 255 255 255
-0.13081 -1.58547 -0.89709 0.0 0.0 -1.0 255 255 255
0.13081 -1.58547 -0.89709 0.0 0.0 -1.0 255 255 255
0.00589 -2.18390 -1.45328 0.0 0.0 -1.0 255 255 255
0.20380 -1.48942 -0.94767 0.0 0.0 -1.0 255 255 255
0.10217 -1.88399 -1.24307 0.0 0.0 -1.0 255 255 255
0.00211 -1.38447 -1.17392 0.0 0.0 -1.0 255 255 255
0.14754 1.23193 -0.72022 0.0 0.0 -1.0 255 255 255
-0.23033 1.01925 -1.17800 0.0 0.0 -1.0 255 255 255
0.25216 1.01918 -1.15379 0.0 0.0 -1.0 255 255 255
0.00000 1.08904 -1.01494 0.0 0.0 -1.0 255 255 255
0.51701 1.07230 -0.51623 0.0 0.0 -1.0 255 255 255
0.40261 0.69894 -0.74697 0.0 0.0 -1.0 255 255 255
0.56819 0.99845 -0.72406 0.0 0.0 -1.0 255 255 255
0.55289 0.81245 -0.96788 0.0 0.0 -1.0 255 255 255
0.73409 0.95971 -0.95115 0.0 0.0 -1.0 255 255 255
0.65891 0.98046 -1.38811 0.0 0.0 -1.0 255 255 255
0.93182 0.72071 -1.01394 0.0 0.0 -1.0 255 255 255
0.74919 0.87291 -1.47776 0.0 0.0 -1.0 255 255 255
0.60505 0.69663 -1.42116 0.0 0.0 -1.0 255 255 255
0.70116 0.69816 -1.65950 0.0 0.0 -1.0 255 255 255
0.50101 0.71695 -1.63800 0.0 0.0 -1.0 255 255 255
0.59888 0.78194 -1.90391 0.0 0.0 -1.0 255 255 255
0.35127 0.99546 -1.77602 0.0 0.0 -1.0 255 255 255
0.23134 1.23757 -1.89413 0.0 0.0 -1.0 255 255 255
0.24591 1.22808 -1.78114 0.0 0.0 -1.0 255 255 255
0.40089 1.38256 -1.84411 0.0 0.0 -1.0 255 255 255
0.53156 1.18411 -1.75052 0.0 0.0 -1.0 255 255 255
0.61135 1.39738 -1.82167 0.0 0.0 -1.0 255 255 255
0.80290 1.12809 -1.77080 0.0 0.0 -1.0 255 255 255
0.81294 1.39826 -1.87013 0.0 0.0 -1.0 255 255 255
0.87527 1.04869 -1.88044 0.0 0.0 -1.0 255 255 255
0.59476 1.33091 -1.88730 0.0 0.0 -1.0 255 255 255
0.59888 0.78194 -1.90391 0.0 0.0 -1.0 255 255 255
0.23134 1.23757 -1.89413 0.0 0.0 -1.0 255 255 255
0.53156 1.18411 -1.75052 0.0 0.0 -1.0 255 255 255
0.80290 1.12809 -1.77080 0.0 0.0 -1.0 255 255 255
0.53156 1.18411 -1.75052 0.0 0.0 -1.0 255 255 255
0.66022 1.06287 -1.60625 0.0 0.0 -1.0 255 255 255
0.35127 0.99546 -1.77602 0.0 0.0 -1.0 255 255 255
0.51903 0.86906 -1.43635 0.0 0.0 -1.0 255 255 255
0.50101 0.71695 -1.63800 0.0 0.0 -1.0 255 255 255
0.60505 0.69663 -1.42116 0.0 0.0 -1.0 255 255 255
0.23697 -0.78233 -1.25186 0.0 0.0 -1.0 255 255 255
0.36855 -1.00231 -0.81807 0.0 0.0 -1.0 255 255 255
0.23697 -0.78233 -1.25186 0.0 0.0 -1.0 255 255 255
0.30299 -1.13615 -1.06309 0.0 0.0 -1.0 255 255 255
0.34378 -1.10349 -1.16390 0.0 0.0 -1.0 255 255 255
0.67713 -0.88423 -0.81430 0.0 0.0 -1.0 255 255 255
0.71972 -0.69034 -1.15058 0.0 0.0 -1.0 255 255 255
0.76869 -0.47687 -0.73394 0.0 0.0 -1.0 255 255 255
0.50338 -0.47459 -1.20983 0.0 0.0 -1.0 255 255 255
0.18590 -1.09547 -1.37600 0.0 0.0 -1.0 255 255 255
0.23697 -0.78233 -1.25186 0.0 0.0 -1.0 255 255 255
0.34378 -1.10349 -1.16390 0.0 0.0 -1.0 255 255 255
-0.00000 2.14819 -0.52962 0.0 0.0 -1.0 255 255 255
-0.00000 2.02042 -0.75569 0.0 0.0 -1.0 255 255 255
0.31787 1.92762 -0.76360 0.0 0.0 -1.0 255 255 255
-0.30117 1.94332 -0.77240 0.0 0.0 -1.0 255 255 255
0.20173 1.84698 -0.88243 0.0 0.0 -1.0 255 255 255
-0.22718 1.83551 -0.90654 0.0 0.0 -1.0 255 255 255
-0.18000 1.84311 -0.77300 0.0 0.0 -1.0 255 255 255
-0.13771 1.48710 -0.68117 0.0 0.0 -1.0 255 255 255
0.20173 1.84698 -0.88243 0.0 0.0 -1.0 255 255 255
0.17946 1.44310 -0.55779 0.0 0.0 -1.0 255 255 255
0.31156 1.58487 -0.69936 0.0 0.0 -1.0 255 255 255
0.33454 1.51101 -0.47967 0.0 0.0 -1.0 255 255 255
0.36878 1.75985 -0.61674 0.0 0.0 -1.0 255 255 255
0.71282 1.81533 -0.60638 0.0 0.0 -1.0 255 255 255
0.10567 -0.49933 -1.88178 0.0 0.0 -1.0 255 255 255
0.18658 -0.66282 -1.70249 0.0 0.0 -1.0 255 255 255
0.15729 -0.75906 -1.85500 0.0 0.0 -1.0 255 255 255
0.18590 -1.09547 -1.37600 0.0 0.0 -1.0 255 255 255
0.28408 -0.98810 -1.73572 0.0 0.0 -1.0 255 255 255
0.33030 -0.98279 -1.59610 0.0 0.0 -1.0 255 255 255
0.45267 -0.67251 -1.86253 0.0 0.0 -1.0 255 255 255
0.33672 -0.66753 -1.67108 0.0 0.0 -1.0 255 255 255
0.46165 -0.37435 -1.77556 0.0 0.0 -1.0 255 255 255
0.00000 -1.13737 -0.87486 0.0 0.0 -1.0 255 255 255
0.00211 -1.38447 -1.17392 0.0 0.0 -1.0 255 255 255
0.20380 -1.48942 -0.94767 0.0 0.0 -1.0 255 255 255
0.06789 -1.25318 -0.03137 0.0 0.0 -1.0 255 255 255
0.39184 -0.99810 0.03419 0.0 0.0 -1.0 255 255 255
0.06789 -1.25318 -0.03137 0.0 0.0 -1.0 255 255 255
0.35858 -1.30186 -0.28919 0.0 0.0 -1.0 255 255 255
-0.18749 -1.41780 -0.47857 0.0 0.0 -1.0 255 255 255
0.00000 -1.54193 -0.79003 0.0 0.0 -1.0 255 255 255
-0.86464 1.13701 -1.77619 0.0 0.0 -1.0 255 255 255
-0.60872 1.06844 -1.58702 0.0 0.0 -1.0 255 255 255
-0.87527 1.04869 -1.88044 0.0 0.0 -1.0 255 255 255
-0.74923 0.87268 -1.47770 0.0 0.0 -1.0 255 255 255
-0.70116 0.69816 -1.65950 0.0 0.0 -1.0 255 255 255
-0.60508 0.69652 -1.42165 0.0 0.0 -1.0 255 255 255
-0.50101 0.71695 -1.63800 0.0 0.0 -1.0 255 255 255
-0.59888 0.78194 -1.90391 0.0 0.0 -1.0 255 255 255
-0.59377 1.38044 -1.88111 0.0 0.0 -1.0 255 255 255
-0.59888 0.78194 -1.90391 0.0 0.0 -1.0 255 255 255
-0.87527 1.04869 -1.88044 0.0 0.0 -1.0 255 255 255
-0.70116 0.69816 -1.65950 0.0 0.0 -1.0 255 255 255
-0.59888 0.78194 -1.90391 0.0 0.0 -1.0 255 255 255
-0.70116 0.69816 -1.65950 0.0 0.0 -1.0 255 255 255
-0.50101 0.71695 -1.63800 0.0 0.0 -1.0 255 255 255
-0.50500 0.67581 -0.75314 0.0 0.0 -1.0 255 255 255
-0.38863 0.34343 -0.76976 0.0 0.0 -1.0 255 255 255
-0.50500 0.67581 -0.75314 0.0 0.0 -1.0 255 255 255
-0.43481 0.78050 -0.78410 0.0 0.0 -1.0 255 255 255
-0.55289 0.81245 -0.96788 0.0 0.0 -1.0 255 255 255
-0.52224 1.05052 -0.57164 0.0 0.0 -1.0 255 255 255
-0.73409 0.95971 -0.95115 0.0 0.0 -1.0 255 255 255
-0.74595 1.09955 -0.62460 0.0 0.0 -1.0 255 255 255
-0.80870 0.53456 -0.85942 0.0 0.0 -1.0 255 255 255
-0.96143 0.92625 -0.61245 0.0 0.0 -1.0 255 255 255
-0.73409 0.95971 -0.95115 0.0 0.0 -1.0 255 255 255
-0.80870 0.53456 -0.85942 0.0 0.0 -1.0 255 255 255
-0.93182 0.72071 -1.01394 0.0 0.0 -1.0 255 255 255
-0.66825 0.51422 -1.23923 0.0 0.0 -1.0 255 255 255
-1.03416 0.67625 -0.05480 0.0 0.0 -1.0 255 255 255
-0.74685 0.50215 0.35486 0.0 0.0 -1.0 255 255 255
-1.03416 0.67625 -0.05480 0.0 0.0 -1.0 255 255 255
-0.88102 0.31619 -0.21147 0.0 0.0 -1.0 255 255 255
-0.98639 0.64841 -0.47900 0.0 0.0 -1.0 255 255 255
-0.69926 0.35868 -0.29375 0.0 0.0 -1.0 255 255 255
-0.76368 0.41111 -0.40573 0.0 0.0 -1.0 255 255 255
-0.47481 0.50774 -0.59477 0.0 0.0 -1.0 255 255 255
-0.86146 0.34584 -0.65901 0.0 0.0 -1.0 255 255 255
-0.55586 0.59732 -0.86532 0.0 0.0 -1.0 255 255 255
-0.51486 1.10614 -0.44833 0.0 0.0 -1.0 255 255 255
-0.49267 1.31039 -0.17774 0.0 0.0 -1.0 255 255 255
-0.51486 1.10614 -0.44833 0.0 0.0 -1.0 255 255 255
-0.91175 0.95113 -0.43316 0.0 0.0 -1.0 255 255 255
-0.52224 1.05052 -0.57164 0.0 0.0 -1.0 255 255 255
-0.74595 1.09955 -0.62460 0.0 0.0 -1.0 255 255 255
-0.45994 -1.14612 -1.32637 0.0 0.0 -1.0 255 255 255
-0.28973 -1.12497 -1.09513 0.0 0.0 -1.0 255 255 255
-0.31320 -1.25135 -1.35028 0.0 0.0 -1.0 255 255 255
-0.45267 -0.67251 -1.86253 0.0 0.0 -1.0 255 255 255
-0.46165 -0.37435 -1.77556 0.0 0.0 -1.0 255 255 255
-0.45267 -0.67251 -1.86253 0.0 0.0 -1.0 255 255 255
-0.33672 -0.66753 -1.67108 0.0 0.0 -1.0 255 255 255
-0.33031 -0.98288 -1.59612 0.0 0.0 -1.0 255 255 255
-0.34147 -0.87582 -1.31859 0.0 0.0 -1.0 255 255 255
-0.28402 -0.98834 -1.73566 0.0 0.0 -1.0 255 255 255
-0.45267 -0.67251 -1.86253 0.0 0.0 -1.0 255 255 255
-0.33031 -0.98288 -1.59612 0.0 0.0 -1.0 255 255 255
0.00000 1.84414 0.20114 0.0 0.0 -1.0 255 255 255
0.24705 1.72425 0.10986 0.0 0.0 -1.0 255 255 255
-0.24684 1.75364 0.10651 0.0 0.0 -1.0 255 255 255
0.00000 1.64612 0.30073 0.0 0.0 -1.0 255 255 255
-0.28832 1.58662 0.23064 0.0 0.0 -1.0 255 255 255
0.26963 1.55444 0.24199 0.0 0.0 -1.0 255 255 255
-0.02318 1.42416 0.37196 0.0 0.0 -1.0 255 255 255
-0.33031 -0.98288 -1.59612 0.0 0.0 -1.0 255 255 255
-0.18612 -1.09533 -1.37701 0.0 0.0 -1.0 255 255 255
-0.28402 -0.98834 -1.73566 0.0 0.0 -1.0 255 255 255
-0.74498 1.90067 -0.65315 0.0 0.0 -1.0 255 255 255
-0.36878 1.75985 -0.61674 0.0 0.0 -1.0 255 255 255
-0.74498 1.90067 -0.65315 0.0 0.0 -1.0 255 255 255
-0.37549 1.66146 -0.41694 0.0 0.0 -1.0 255 255 255
-0.33454 1.51101 -0.47967 0.0 0.0 -1.0 255 255 255
-0.20553 1.44573 -0.44598 0.0 0.0 -1.0 255 255 255
-0.13771 1.48710 -0.68117 0.0 0.0 -1.0 255 255 255
-0.40141 1.33950 -0.57186 0.0 0.0 -1.0 255 255 255
-0.00011 1.37203 -0.80582 0.0 0.0 -1.0 255 255 255
-0.37671 1.29394 -0.48564 0.0 0.0 -1.0 255 255 255
-0.18680 1.18424 -0.74807 0.0 0.0 -1.0 255 255 255
-0.02318 1.42416 0.37196 0.0 0.0 -1.0 255 255 255
-0.53530 1.35670 0.09268 0.0 0.0 -1.0 255 255 255
-0.53447 1.26967 0.29516 0.0 0.0 -1.0 255 255 255
-0.02318 1.42416 0.37196 0.0 0.0 -1.0 255 255 255
-0.63187 0.85604 0.48768 0.0 0.0 -1.0 255 255 255
0.00000 0.84287 0.78727 0.0 0.0 -1.0 255 255 255
-0.40863 -0.95996 0.05770 0.0 0.0 -1.0 255 255 255
-0.56980 -0.32988 -0.04148 0.0 0.0 -1.0 255 255 255
-0.01683 -0.74306 0.27960 0.0 0.0 -1.0 255 255 255
0.00702 -0.22387 0.27030 0.0 0.0 -1.0 255 255 255
0.51226 -0.44481 0.04266 0.0 0.0 -1.0 255 255 255
0.56944 -0.02183 0.06556 0.0 0.0 -1.0 255 255 255
0.60116 -0.29934 -0.13834 0.0 0.0 -1.0 255 255 255
0.51535 0.01988 -0.52522 0.0 0.0 -1.0 255 255 255
0.66845 -0.33417 -0.56005 0.0 0.0 -1.0 255 255 255
0.50350 -0.30502 -0.79317 0.0 0.0 -1.0 255 255 255
-0.60720 -1.01426 -1.00868 0.0 0.0 -1.0 255 255 255
-0.34147 -0.87582 -1.31859 0.0 0.0 -1.0 255 255 255
-0.72478 -0.69363 -1.15248 0.0 0.0 -1.0 255 255 255
-0.50338 -0.47459 -1.20983 0.0 0.0 -1.0 255 255 255
-0.80222 -0.54035 -0.71674 0.0 0.0 -1.0 255 255 255
-0.50350 -0.30502 -0.79317 0.0 0.0 -1.0 255 255 255
-0.68025 -0.33986 -0.58069 0.0 0.0 -1.0 255 255 255
-0.51535 0.01988 -0.52522 0.0 0.0 -1.0 255 255 255
-0.56980 -0.32988 -0.04148 0.0 0.0 -1.0 255 255 255
-0.56689 -0.03018 0.05673 0.0 0.0 -1.0 255 255 255
0.00702 -0.22387 0.27030 0.0 0.0 -1.0 255 255 255
-0.55423 0.17379 0.19464 0.0 0.0 -1.0 255 255 255
0.00000 0.34884 0.66329 0.0 0.0 -1.0 255 255 255
-0.74685 0.50215 0.35486 0.0 0.0 -1.0 255 255 255
-0.53530 1.35670 0.09268 0.0 0.0 -1.0 255 255 255
-0.28832 1.58662 0.23064 0.0 0.0 -1.0 255 255 255
-0.02318 1.42416 0.37196 0.0 0.0 -1.0 255 255 255
-0.74685 0.50215 0.35486 0.0 0.0 -1.0 255 255 255
-0.55423 0.17379 0.19464 0.0 0.0 -1.0 255 255 255
-0.69978 0.41245 0.15666 0.0 0.0 -1.0 255 255 255
-0.69926 0.35868 -0.29375 0.0 0.0 -1.0 255 255 255
-0.88102 0.31619 -0.21147 0.0 0.0 -1.0 255 255 255
-0.18749 -1.41780 -0.47857 0.0 0.0 -1.0 255 255 255
-0.36453 -1.27825 -0.27374 0.0 0.0 -1.0 255 255 255
0.06789 -1.25318 -0.03137 0.0 0.0 -1.0 255 255 255
-0.40104 -1.00838 -0.80998 0.0 0.0 -1.0 255 255 255
0.00000 -1.13737 -0.87486 0.0 0.0 -1.0 255 255 255
-0.40104 -1.00838 -0.80998 0.0 0.0 -1.0 255 255 255
-0.00444 -0.73069 -1.05161 0.0 0.0 -1.0 255 255 255
-0.23477 -0.53211 -0.88378 0.0 0.0 -1.0 255 255 255
-0.16582 -0.09308 -0.78041 0.0 0.0 -1.0 255 255 255
-0.20553 1.44573 -0.44598 0.0 0.0 -1.0 255 255 255
-0.37549 1.66146 -0.41694 0.0 0.0 -1.0 255 255 255
-0.39841 1.56902 -0.16835 0.0 0.0 -1.0 255 255 255
-0.36964 1.96649 -0.31863 0.0 0.0 -1.0 255 255 255
-0.38038 1.61692 0.01224 0.0 0.0 -1.0 255 255 255
-0.27985 2.20578 -0.15276 0.0 0.0 -1.0 255 255 255
-0.20776 2.07908 -0.12240 0.0 0.0 -1.0 255 255 255
0.33889 2.17217 -0.14924 0.0 0.0 -1.0 255 255 255
0.26141 2.04213 -0.11305 0.0 0.0 -1.0 255 255 255
0.38164 1.61575 0.01269 0.0 0.0 -1.0 255 255 255
0.93182 0.72071 -1.01394 0.0 0.0 -1.0 255 255 255
0.60505 0.69663 -1.42116 0.0 0.0 -1.0 255 255 255
0.66781 0.51492 -1.24157 0.0 0.0 -1.0 255 255 255
0.55586 0.59732 -0.86532 0.0 0.0 -1.0 255 255 255
0.77194 0.51053 -0.85103 0.0 0.0 -1.0 255 255 255
0.86146 0.34584 -0.65901 0.0 0.0 -1.0 255 255 255
0.91991 0.95600 -0.64102 0.0 0.0 -1.0 255 255 255
0.98639 0.64841 -0.47900 0.0 0.0 -1.0 255 255 255
0.72717 1.08159 -0.50327 0.0 0.0 -1.0 255 255 255
0.98354 0.96212 -0.20622 0.0 0.0 -1.0 255 255 255
0.51701 1.07230 -0.51623 0.0 0.0 -1.0 255 255 255
0.64767 1.27021 -0.16736 0.0 0.0 -1.0 255 255 255
0.46497 1.34558 -0.14013 0.0 0.0 -1.0 255 255 255
0.65068 1.28335 0.18671 0.0 0.0 -1.0 255 255 255
0.52004 1.29489 0.28615 0.0 0.0 -1.0 255 255 255
0.63187 0.85604 0.48768 0.0 0.0 -1.0 255 255 255
0.87527 1.04869 -1.88044 0.0 0.0 -1.0 255 255 255
0.59888 0.78194 -1.90391 0.0 0.0 -1.0 255 255 255
0.87527 1.04869 -1.88044 0.0 0.0 -1.0 255 255 255
0.70116 0.69816 -1.65950 0.0 0.0 -1.0 255 255 255
0.74919 0.87291 -1.47776 0.0 0.0 -1.0 255 255 255
0.66022 1.06287 -1.60625 0.0 0.0 -1.0 255 255 255
0.80290 1.12809 -1.77080 0.0 0.0 -1.0 255 255 255
0.66022 1.06287 -1.60625 0.0 0.0 -1.0 255 255 255
0.87527 1.04869 -1.88044 0.0 0.0 -1.0 255 255 255
0.74919 0.87291 -1.47776 0.0 0.0 -1.0 255 255 255
0.66022 1.06287 -1.60625 0.0 0.0 -1.0 255 255 255
0.74919 0.87291 -1.47776 0.0 0.0 -1.0 255 255 255
0.66022 1.06287 -1.60625 0.0 0.0 -1.0 255 255 255
0.65891 0.98046 -1.38811 0.0 0.0 -1.0 255 255 255
0.51903 0.86906 -1.43635 0.0 0.0 -1.0 255 255 255
0.55289 0.81245 -0.96788 0.0 0.0 -1.0 255 255 255
0.60505 0.69663 -1.42116 0.0 0.0 -1.0 255 255 255
0.55586 0.59732 -0.86532 0.0 0.0 -1.0 255 255 255
0.00702 -0.22387 0.27030 0.0 0.0 -1.0 255 255 255
0.00000 0.34884 0.66329 0.0 0.0 -1.0 255 255 255
0.67398 0.43268 0.27615 0.0 0.0 -1.0 255 255 255
0.63187 0.85604 0.48768 0.0 0.0 -1.0 255 255 255
0.77345 0.47244 0.36677 0.0 0.0 -1.0 255 255 255
1.06816 0.80799 0.09059 0.0 0.0 -1.0 255 255 255
0.87934 0.31557 -0.20302 0.0 0.0 -1.0 255 255 255
0.98639 0.64841 -0.47900 0.0 0.0 -1.0 255 255 255
0.78580 0.41186 -0.39004 0.0 0.0 -1.0 255 255 255
0.86146 0.34584 -0.65901 0.0 0.0 -1.0 255 255 255
0.47094 0.50446 -0.60376 0.0 0.0 -1.0 255 255 255
0.55586 0.59732 -0.86532 0.0 0.0 -1.0 255 255 255
0.40261 0.69894 -0.74697 0.0 0.0 -1.0 255 255 255
0.55289 0.81245 -0.96788 0.0 0.0 -1.0 255 255 255
0.56819 0.99845 -0.72406 0.0 0.0 -1.0 255 255 255
0.73409 0.95971 -0.95115 0.0 0.0 -1.0 255 255 255
0.91991 0.95600 -0.64102 0.0 0.0 -1.0 255 255 255
0.93182 0.72071 -1.01394 0.0 0.0 -1.0 255 255 255
0.77194 0.51053 -0.85103 0.0 0.0 -1.0 255 255 255
0.66781 0.51492 -1.24157 0.0 0.0 -1.0 255 255 255
0.18590 -1.09547 -1.37600 0.0 0.0 -1.0 255 255 255
0.34378 -1.10349 -1.16390 0.0 0.0 -1.0 255 255 255
0.31320 -1.25135 -1.35028 0.0 0.0 -1.0 255 255 255
0.45894 -1.14836 -1.32667 0.0 0.0 -1.0 255 255 255
0.33030 -0.98279 -1.59610 0.0 0.0 -1.0 255 255 255
0.34147 -0.87582 -1.31859 0.0 0.0 -1.0 255 255 255
0.33672 -0.66753 -1.67108 0.0 0.0 -1.0 255 255 255
0.00000 -1.54193 -0.79003 0.0 0.0 -1.0 255 255 255
0.35858 -1.30186 -0.28919 0.0 0.0 -1.0 255 255 255
0.00000 -1.54193 -0.79003 0.0 0.0 -1.0 255 255 255
0.20380 -1.48942 -0.94767 0.0 0.0 -1.0 255 255 255
0.13081 -1.58547 -0.89709 0.0 0.0 -1.0 255 255 255
0.34147 -0.87582 -1.31859 0.0 0.0 -1.0 255 255 255
0.45894 -1.14836 -1.32667 0.0 0.0 -1.0 255 255 255
0.34378 -1.10349 -1.16390 0.0 0.0 -1.0 255 255 255
0.28408 -0.98810 -1.73572 0.0 0.0 -1.0 255 255 255
0.45267 -0.67251 -1.86253 0.0 0.0 -1.0 255 255 255
0.15729 -0.75906 -1.85500 0.0 0.0 -1.0 255 255 255
0.10567 -0.49933 -1.88178 0.0 0.0 -1.0 255 255 255
0.87934 0.31557 -0.20302 0.0 0.0 -1.0 255 255 255
0.78580 0.41186 -0.39004 0.0 0.0 -1.0 255 255 255
0.67398 0.43268 0.27615 0.0 0.0 -1.0 255 255 255
0.65523 0.31451 -0.28250 0.0 0.0 -1.0 255 255 255
0.58015 0.17236 0.18044 0.0 0.0 -1.0 255 255 255
0.56944 -0.02183 0.06556 0.0 0.0 -1.0 255 255 255
0.00702 -0.22387 0.27030 0.0 0.0 -1.0 255 255 255
0.67398 0.43268 0.27615 0.0 0.0 -1.0 255 255 255
0.58015 0.17236 0.18044 0.0 0.0 -1.0 255 255 255
0.00702 -0.22387 0.27030 0.0 0.0 -1.0 255 255 255
0.77122 -0.61960 -0.00795 0.0 0.0 -1.0 255 255 255
0.86232 -0.59724 -0.41782 0.0 0.0 -1.0 255 255 255
0.51552 -1.11616 -0.06679 0.0 0.0 -1.0 255 255 255
0.54659 -1.22835 -0.61373 0.0 0.0 -1.0 255 255 255
0.41305 -1.16595 -0.62103 0.0 0.0 -1.0 255 255 255
0.36855 -1.00231 -0.81807 0.0 0.0 -1.0 255 255 255
0.00000 -1.13737 -0.87486 0.0 0.0 -1.0 255 255 255
-0.00444 -0.73069 -1.05161 0.0 0.0 -1.0 255 255 255
0.77122 -0.61960 -0.00795 0.0 0.0 -1.0 255 255 255
0.51552 -1.11616 -0.06679 0.0 0.0 -1.0 255 255 255
0.39184 -0.99810 0.03419 0.0 0.0 -1.0 255 255 255
0.41305 -1.16595 -0.62103 0.0 0.0 -1.0 255 255 255
0.35858 -1.30186 -0.28919 0.0 0.0 -1.0 255 255 255
0.20380 -1.48942 -0.94767 0.0 0.0 -1.0 255 255 255
0.17798 0.00142 -0.74729 0.0 0.0 -1.0 255 255 255
0.50350 -0.30502 -0.79317 0.0 0.0 -1.0 255 255 255
0.17798 0.00142 -0.74729 0.0 0.0 -1.0 255 255 255
0.51535 0.01988 -0.52522 0.0 0.0 -1.0 255 255 255
0.47094 0.50446 -0.60376 0.0 0.0 -1.0 255 255 255
0.65523 0.31451 -0.28250 0.0 0.0 -1.0 255 255 255
0.78580 0.41186 -0.39004 0.0 0.0 -1.0 255 255 255
0.40141 1.33950 -0.57186 0.0 0.0 -1.0 255 255 255
0.46404 1.42696 -0.14642 0.0 0.0 -1.0 255 255 255
0.17946 1.44310 -0.55779 0.0 0.0 -1.0 255 255 255
0.40453 1.59631 -0.18163 0.0 0.0 -1.0 255 255 255
0.37564 1.66165 -0.41718 0.0 0.0 -1.0 255 255 255
0.35731 1.99822 -0.32579 0.0 0.0 -1.0 255 255 255
0.37130 1.91987 -0.43577 0.0 0.0 -1.0 255 255 255
-0.00201 2.13662 -0.34407 0.0 0.0 -1.0 255 255 255
-0.00119 2.12353 -0.47210 0.0 0.0 -1.0 255 255 255
-0.37803 1.94272 -0.44045 0.0 0.0 -1.0 255 255 255
-0.00000 2.14819 -0.52962 0.0 0.0 -1.0 255 255 255
-0.36952 1.98529 -0.59746 0.0 0.0 -1.0 255 255 255
0.00000 2.10281 -0.63052 0.0 0.0 -1.0 255 255 255
-0.30117 1.94332 -0.77240 0.0 0.0 -1.0 255 255 255
-0.00000 2.02042 -0.75569 0.0 0.0 -1.0 255 255 255
-0.27985 2.20578 -0.15276 0.0 0.0 -1.0 255 255 255
-0.36964 1.96649 -0.31863 0.0 0.0 -1.0 255 255 255
-0.27985 2.20578 -0.15276 0.0 0.0 -1.0 255 255 255
-0.00201 2.13662 -0.34407 0.0 0.0 -1.0 255 255 255
0.33889 2.17217 -0.14924 0.0 0.0 -1.0 255 255 255
0.35731 1.99822 -0.32579 0.0 0.0 -1.0 255 255 255
0.38164 1.61575 0.01269 0.0 0.0 -1.0 255 255 255
0.40453 1.59631 -0.18163 0.0 0.0 -1.0 255 255 255
0.46404 1.42696 -0.14642 0.0 0.0 -1.0 255 255 255
-0.74595 1.09955 -0.62460 0.0 0.0 -1.0 255 255 255
-0.91175 0.95113 -0.43316 0.0 0.0 -1.0 255 255 255
-0.96143 0.92625 -0.61245 0.0 0.0 -1.0 255 255 255
-0.76368 0.41111 -0.40573 0.0 0.0 -1.0 255 255 255
-0.86146 0.34584 -0.65901 0.0 0.0 -1.0 255 255 255
-0.98639 0.64841 -0.47900 0.0 0.0 -1.0 255 255 255
-0.73409 0.95971 -0.95115 0.0 0.0 -1.0 255 255 255
-0.93182 0.72071 -1.01394 0.0 0.0 -1.0 255 255 255
-0.73409 0.95971 -0.95115 0.0 0.0 -1.0 255 255 255
-0.65921 0.97887 -1.38501 0.0 0.0 -1.0 255 255 255
-0.55289 0.81245 -0.96788 0.0 0.0 -1.0 255 255 255
-0.51906 0.86898 -1.43596 0.0 0.0 -1.0 255 255 255
-0.91175 0.95113 -0.43316 0.0 0.0 -1.0 255 255 255
-0.49267 1.31039 -0.17774 0.0 0.0 -1.0 255 255 255
-1.02385 0.92050 0.10122 0.0 0.0 -1.0 255 255 255
-0.53530 1.35670 0.09268 0.0 0.0 -1.0 255 255 255
-0.63187 0.85604 0.48768 0.0 0.0 -1.0 255 255 255
-0.53447 1.26967 0.29516 0.0 0.0 -1.0 255 255 255
-0.77122 -0.61960 -0.00795 0.0 0.0 -1.0 255 255 255
-0.51576 -1.11605 -0.06700 0.0 0.0 -1.0 255 255 255
-0.85967 -0.60347 -0.35287 0.0 0.0 -1.0 255 255 255
-0.54551 -1.22636 -0.59656 0.0 0.0 -1.0 255 255 255
-0.80222 -0.54035 -0.71674 0.0 0.0 -1.0 255 255 255
-0.68025 -0.33986 -0.58069 0.0 0.0 -1.0 255 255 255
-0.56980 -0.32988 -0.04148 0.0 0.0 -1.0 255 255 255
-0.72478 -0.69363 -1.15248 0.0 0.0 -1.0 255 255 255
-0.80222 -0.54035 -0.71674 0.0 0.0 -1.0 255 255 255
-0.68527 -0.84728 -0.81858 0.0 0.0 -1.0 255 255 255
-0.28973 -1.12497 -1.09513 0.0 0.0 -1.0 255 255 255
-0.40104 -1.00838 -0.80998 0.0 0.0 -1.0 255 255 255
-0.23477 -0.53211 -0.88378 0.0 0.0 -1.0 255 255 255
-0.87527 1.04869 -1.88044 0.0 0.0 -1.0 255 255 255
-1.05021 1.25320 -1.88513 0.0 0.0 -1.0 255 255 255
-0.87527 1.04869 -1.88044 0.0 0.0 -1.0 255 255 255
-0.86464 1.13701 -1.77619 0.0 0.0 -1.0 255 255 255
-1.05021 1.25320 -1.88513 0.0 0.0 -1.0 255 255 255
-0.60872 1.06844 -1.58702 0.0 0.0 -1.0 255 255 255
-0.86464 1.13701 -1.77619 0.0 0.0 -1.0 255 255 255
-0.60872 1.06844 -1.58702 0.0 0.0 -1.0 255 255 255
-0.62716 1.18625 -1.76401 0.0 0.0 -1.0 255 255 255
-0.35285 1.04876 -1.80054 0.0 0.0 -1.0 255 255 255
-0.40467 1.37110 -1.83566 0.0 0.0 -1.0 255 255 255
-0.19611 1.26814 -1.88518 0.0 0.0 -1.0 255 255 255
-0.87527 1.04869 -1.88044 0.0 0.0 -1.0 255 255 255
-0.59377 1.38044 -1.88111 0.0 0.0 -1.0 255 255 255
-0.81124 1.39642 -1.87024 0.0 0.0 -1.0 255 255 255
-0.61370 1.36225 -1.79642 0.0 0.0 -1.0 255 255 255
-0.40141 1.33950 -0.57186 0.0 0.0 -1.0 255 255 255
-0.20553 1.44573 -0.44598 0.0 0.0 -1.0 255 255 255
-0.37671 1.29394 -0.48564 0.0 0.0 -1.0 255 255 255
-0.39841 1.56902 -0.16835 0.0 0.0 -1.0 255 255 255
-0.38038 1.61692 0.01224 0.0 0.0 -1.0 255 255 255
-0.52911 1.49779 0.09928 0.0 0.0 -1.0 255 255 255
-0.37671 1.29394 -0.48564 0.0 0.0 -1.0 255 255 255
-0.38038 1.61692 0.01224 0.0 0.0 -1.0 255 255 255
-0.05870 0.35756 -1.18885 0.0 0.0 -1.0 255 255 255
-0.43481 0.78050 -0.78410 0.0 0.0 -1.0 255 255 255
-0.38863 0.34343 -0.76976 0.0 0.0 -1.0 255 255 255
-0.10567 -0.49933 -1.88178 0.0 0.0 -1.0 255 255 255
-0.21713 -0.77053 -1.88382 0.0 0.0 -1.0 255 255 255
-0.13965 -0.69831 -1.75025 0.0 0.0 -1.0 255 255 255
-0.16786 -0.30841 -1.85586 0.0 0.0 -1.0 255 255 255
-0.26828 -0.52862 -1.77090 0.0 0.0 -1.0 255 255 255
-0.36171 -0.31587 -1.87687 0.0 0.0 -1.0 255 255 255
-0.13081 -1.58547 -0.89709 0.0 0.0 -1.0 255 255 255
0.00589 -2.18390 -1.45328 0.0 0.0 -1.0 255 255 255
-0.21254 -1.50766 -0.94897 0.0 0.0 -1.0 255 255 255
-0.20896 -2.21510 -1.67428 0.0 0.0 -1.0 255 255 255
-0.36964 1.96649 -0.31863 0.0 0.0 -1.0 255 255 255
-0.37549 1.66146 -0.41694 0.0 0.0 -1.0 255 255 255
-0.37803 1.94272 -0.44045 0.0 0.0 -1.0 255 255 255
-0.36952 1.98529 -0.59746 0.0 0.0 -1.0 255 255 255
-0.33454 1.51101 -0.47967 0.0 0.0 -1.0 255 255 255
-0.13771 1.48710 -0.68117 0.0 0.0 -1.0 255 255 255
-0.33454 1.51101 -0.47967 0.0 0.0 -1.0 255 255 255
-0.33374 1.62675 -0.72274 0.0 0.0 -1.0 255 255 255
-0.36878 1.75985 -0.61674 0.0 0.0 -1.0 255 255 255
-0.30117 1.94332 -0.77240 0.0 0.0 -1.0 255 255 255
-0.36952 1.98529 -0.59746 0.0 0.0 -1.0 255 255 255
-0.22718 1.83551 -0.90654 0.0 0.0 -1.0 255 255 255
-0.30117 1.94332 -0.77240 0.0 0.0 -1.0 255 255 255
-0.22718 1.83551 -0.90654 0.0 0.0 -1.0 255 255 255
-0.33374 1.62675 -0.72274 0.0 0.0 -1.0 255 255 255
-0.13771 1.48710 -0.68117 0.0 0.0 -1.0 255 255 255
-0.36964 1.96649 -0.31863 0.0 0.0 -1.0 255 255 255
-0.37803 1.94272 -0.44045 0.0 0.0 -1.0 255 255 255
-0.00201 2.13662 -0.34407 0.0 0.0 -1.0 255 255 255
-0.36878 1.75985 -0.61674 0.0 0.0 -1.0 255 255 255
-0.36952 1.98529 -0.59746 0.0 0.0 -1.0 255 255 255
-0.37549 1.66146 -0.41694 0.0 0.0 -1.0 255 255 255
-0.74498 1.90067 -0.65315 0.0 0.0 -1.0 255 255 255
-1.05873 2.20895 -0.96864 0.0 0.0 -1.0 255 255 255
-0.36878 1.75985 -0.61674 0.0 0.0 -1.0 255 255 255
-0.33454 1.51101 -0.47967 0.0 0.0 -1.0 255 255 255
-0.36878 1.75985 -0.61674 0.0 0.0 -1.0 255 255 255
-0.74498 1.90067 -0.65315 0.0 0.0 -1.0 255 255 255
-0.36878 1.75985 -0.61674 0.0 0.0 -1.0 255 255 255
-1.05873 2.20895 -0.96864 0.0 0.0 -1.0 255 255 255
-0.74498 1.90067 -0.65315 0.0 0.0 -1.0 255 255 255
0.56819 0.99845 -0.72406 0.0 0.0 -1.0 255 255 255
0.91991 0.95600 -0.64102 0.0 0.0 -1.0 255 255 255
0.72717 1.08159 -0.50327 0.0 0.0 -1.0 255 255 255
0.51701 1.07230 -0.51623 0.0 0.0 -1.0 255 255 255
0.56819 0.99845 -0.72406 0.0 0.0 -1.0 255 255 255
0.72717 1.08159 -0.50327 0.0 0.0 -1.0 255 255 255
0.98639 0.64841 -0.47900 0.0 0.0 -1.0 255 255 255
1.06816 0.80799 0.09059 0.0 0.0 -1.0 255 255 255
0.98354 0.96212 -0.20622 0.0 0.0 -1.0 255 255 255
0.65068 1.28335 0.18671 0.0 0.0 -1.0 255 255 255
0.64767 1.27021 -0.16736 0.0 0.0 -1.0 255 255 255
1.06816 0.80799 0.09059 0.0 0.0 -1.0 255 255 255
0.63187 0.85604 0.48768 0.0 0.0 -1.0 255 255 255
0.65068 1.28335 0.18671 0.0 0.0 -1.0 255 255 255
0.52004 1.29489 0.28615 0.0 0.0 -1.0 255 255 255
0.46404 1.42696 -0.14642 0.0 0.0 -1.0 255 255 255
0.46497 1.34558 -0.14013 0.0 0.0 -1.0 255 255 255
0.71972 -0.69034 -1.15058 0.0 0.0 -1.0 255 255 255
0.50338 -0.47459 -1.20983 0.0 0.0 -1.0 255 255 255
0.71972 -0.69034 -1.15058 0.0 0.0 -1.0 255 255 255
0.34147 -0.87582 -1.31859 0.0 0.0 -1.0 255 255 255
0.34378 -1.10349 -1.16390 0.0 0.0 -1.0 255 255 255
0.30299 -1.13615 -1.06309 0.0 0.0 -1.0 255 255 255
0.36855 -1.00231 -0.81807 0.0 0.0 -1.0 255 255 255
0.67713 -0.88423 -0.81430 0.0 0.0 -1.0 255 255 255
0.54659 -1.22835 -0.61373 0.0 0.0 -1.0 255 255 255
0.86232 -0.59724 -0.41782 0.0 0.0 -1.0 255 255 255
0.31320 -1.25135 -1.35028 0.0 0.0 -1.0 255 255 255
0.33030 -0.98279 -1.59610 0.0 0.0 -1.0 255 255 255
0.18590 -1.09547 -1.37600 0.0 0.0 -1.0 255 255 255
0.40089 1.38256 -1.84411 0.0 0.0 -1.0 255 255 255
0.23134 1.23757 -1.89413 0.0 0.0 -1.0 255 255 255
0.40089 1.38256 -1.84411 0.0 0.0 -1.0 255 255 255
0.59476 1.33091 -1.88730 0.0 0.0 -1.0 255 255 255
0.61135 1.39738 -1.82167 0.0 0.0 -1.0 255 255 255
0.81294 1.39826 -1.87013 0.0 0.0 -1.0 255 255 255
0.87527 1.04869 -1.88044 0.0 0.0 -1.0 255 255 255
1.05267 1.25489 -1.88734 0.0 0.0 -1.0 255 255 255
0.80290 1.12809 -1.77080 0.0 0.0 -1.0 255 255 255
0.87527 1.04869 -1.88044 0.0 0.0 -1.0 255 255 255
0.80290 1.12809 -1.77080 0.0 0.0 -1.0 255 255 255
1.05267 1.25489 -1.88734 0.0 0.0 -1.0 255 255 255
0.40141 1.33950 -0.57186 0.0 0.0 -1.0 255 255 255
0.17946 1.44310 -0.55779 0.0 0.0 -1.0 255 255 255
-0.00011 1.37203 -0.80582 0.0 0.0 -1.0 255 255 255
-0.13771 1.48710 -0.68117 0.0 0.0 -1.0 255 255 255
0.26963 1.55444 0.24199 0.0 0.0 -1.0 255 255 255
0.00000 1.64612 0.30073 0.0 0.0 -1.0 255 255 255
0.26963 1.55444 0.24199 0.0 0.0 -1.0 255 255 255
0.24705 1.72425 0.10986 0.0 0.0 -1.0 255 255 255
0.52911 1.49779 0.09928 0.0 0.0 -1.0 255 255 255
0.25216 1.01918 -1.15379 0.0 0.0 -1.0 255 255 255
0.51701 1.07230 -0.51623 0.0 0.0 -1.0 255 255 255
0.14754 1.23193 -0.72022 0.0 0.0 -1.0 255 255 255
0.32076 1.31478 -0.50261 0.0 0.0 -1.0 255 255 255
0.51701 1.07230 -0.51623 0.0 0.0 -1.0 255 255 255
0.46497 1.34558 -0.14013 0.0 0.0 -1.0 255 255 255
0.32076 1.31478 -0.50261 0.0 0.0 -1.0 255 255 255
0.40261 0.69894 -0.74697 0.0 0.0 -1.0 255 255 255
0.00000 1.08904 -1.01494 0.0 0.0 -1.0 255 255 255
0.00000 0.74186 -1.18632 0.0 0.0 -1.0 255 255 255
0.00000 0.74186 -1.18632 0.0 0.0 -1.0 255 255 255
0.27485 0.38519 -1.04264 0.0 0.0 -1.0 255 255 255
0.40261 0.69894 -0.74697 0.0 0.0 -1.0 255 255 255
0.47094 0.50446 -0.60376 0.0 0.0 -1.0 255 255 255
0.16786 -0.30841 -1.85586 0.0 0.0 -1.0 255 255 255
0.36171 -0.31587 -1.87687 0.0 0.0 -1.0 255 255 255
0.26828 -0.52862 -1.77090 0.0 0.0 -1.0 255 255 255
0.00000 -1.13737 -0.87486 0.0 0.0 -1.0 255 255 255
0.20380 -1.48942 -0.94767 0.0 0.0 -1.0 255 255 255
0.41305 -1.16595 -0.62103 0.0 0.0 -1.0 255 255 255
0.00264 -1.78617 -1.32814 0.0 0.0 -1.0 255 255 255
0.00000 -2.24565 -1.88344 0.0 0.0 -1.0 255 255 255
0.18950 -2.23235 -1.75251 0.0 0.0 -1.0 255 255 255
0.37564 1.66165 -0.41718 0.0 0.0 -1.0 255 255 255
0.37130 1.91987 -0.43577 0.0 0.0 -1.0 255 255 255
0.37720 2.04498 -0.53334 0.0 0.0 -1.0 255 255 255
-0.00119 2.12353 -0.47210 0.0 0.0 -1.0 255 255 255
-0.00000 2.14819 -0.52962 0.0 0.0 -1.0 255 255 255
0.37720 2.04498 -0.53334 0.0 0.0 -1.0 255 255 255
-0.00000 2.14819 -0.52962 0.0 0.0 -1.0 255 255 255
0.31787 1.92762 -0.76360 0.0 0.0 -1.0 255 255 255
0.31156 1.58487 -0.69936 0.0 0.0 -1.0 255 255 255
0.36878 1.75985 -0.61674 0.0 0.0 -1.0 255 255 255
0.31787 1.92762 -0.76360 0.0 0.0 -1.0 255 255 255
0.37720 2.04498 -0.53334 0.0 0.0 -1.0 255 255 255
0.36878 1.75985 -0.61674 0.0 0.0 -1.0 255 255 255
0.71282 1.81533 -0.60638 0.0 0.0 -1.0 255 255 255
0.37564 1.66165 -0.41718 0.0 0.0 -1.0 255 255 255
0.33454 1.51101 -0.47967 0.0 0.0 -1.0 255 255 255
0.17946 1.44310 -0.55779 0.0 0.0 -1.0 255 255 255
0.36878 1.75985 -0.61674 0.0 0.0 -1.0 255 255 255
0.37564 1.66165 -0.41718 0.0 0.0 -1.0 255 255 255
0.37720 2.04498 -0.53334 0.0 0.0 -1.0 255 255 255
0.31156 1.58487 -0.69936 0.0 0.0 -1.0 255 255 255
0.31787 1.92762 -0.76360 0.0 0.0 -1.0 255 255 255
0.20173 1.84698 -0.88243 0.0 0.0 -1.0 255 255 255
0.71282 1.81533 -0.60638 0.0 0.0 -1.0 255 255 255
0.95312 2.14649 -0.87745 0.0 0.0 -1.0 255 255 255
0.71282 1.81533 -0.60638 0.0 0.0 -1.0 255 255 255
0.36878 1.75985 -0.61674 0.0 0.0 -1.0 255 255 255
0.95312 2.14649 -0.87745 0.0 0.0 -1.0 255 255 255
0.53156 1.18411 -1.75052 0.0 0.0 -1.0 255 255 255
0.35127 0.99546 -1.77602 0.0 0.0 -1.0 255 255 255
0.24591 1.22808 -1.78114 0.0 0.0 -1.0 255 255 255
0.76869 -0.47687 -0.73394 0.0 0.0 -1.0 255 255 255
0.67713 -0.88423 -0.81430 0.0 0.0 -1.0 255 255 255
0.86232 -0.59724 -0.41782 0.0 0.0 -1.0 255 255 255
0.87934 0.31557 -0.20302 0.0 0.0 -1.0 255 255 255
0.67398 0.43268 0.27615 0.0 0.0 -1.0 255 255 255
0.77345 0.47244 0.36677 0.0 0.0 -1.0 255 255 255
0.51535 0.01988 -0.52522 0.0 0.0 -1.0 255 255 255
0.56944 -0.02183 0.06556 0.0 0.0 -1.0 255 255 255
0.65523 0.31451 -0.28250 0.0 0.0 -1.0 255 255 255
-0.56689 -0.03018 0.05673 0.0 0.0 -1.0 255 255 255
-0.51535 0.01988 -0.52522 0.0 0.0 -1.0 255 255 255
-0.56689 -0.03018 0.05673 0.0 0.0 -1.0 255 255 255
-0.69926 0.35868 -0.29375 0.0 0.0 -1.0 255 255 255
-0.55423 0.17379 0.19464 0.0 0.0 -1.0 255 255 255
-0.69926 0.35868 -0.29375 0.0 0.0 -1.0 255 255 255
-0.51535 0.01988 -0.52522 0.0 0.0 -1.0 255 255 255
-0.47481 0.50774 -0.59477 0.0 0.0 -1.0 255 255 255
0.00353 -0.02537 -0.93932 0.0 0.0 -1.0 255 255 255
-0.05870 0.35756 -1.18885 0.0 0.0 -1.0 255 255 255
-0.38863 0.34343 -0.76976 0.0 0.0 -1.0 255 255 255
0.27485 0.38519 -1.04264 0.0 0.0 -1.0 255 255 255
0.17798 0.00142 -0.74729 0.0 0.0 -1.0 255 255 255
0.47094 0.50446 -0.60376 0.0 0.0 -1.0 255 255 255
-0.74685 0.50215 0.35486 0.0 0.0 -1.0 255 255 255
-0.69978 0.41245 0.15666 0.0 0.0 -1.0 255 255 255
-0.88102 0.31619 -0.21147 0.0 0.0 -1.0 255 255 255
-0.60720 -1.01426 -1.00868 0.0 0.0 -1.0 255 255 255
-0.72478 -0.69363 -1.15248 0.0 0.0 -1.0 255 255 255
-0.68527 -0.84728 -0.81858 0.0 0.0 -1.0 255 255 255
3 1 0 2
3 1 2 3
3 3 2 4
3 3 4 5
3 5 4 6
3 5 6 7
3 7 6 8
3 7 8 9
3 9 8 10
3 9 10 11
3 11 10 12
3 11 12 13
3 13 12 14
3 13 14 15
3 15 14 16
3 15 16 17
3 17 16 18
3 17 18 19
3 19 18 20
3 19 20 21
3 21 20 22
3 21 22 23
3 23 22 24
3 23 24 25
3 25 24 26
3 25 26 27
3 27 26 28
3 27 28 29
3 29 28 30
3 29 30 31
3 31 30 32
3 31 32 33
3 33 32 34
3 33 34 35
3 35 34 36
3 38 37 39
3 38 39 40
3 40 39 41
3 40 41 42
3 42 41 43
3 42 43 44
3 44 43 45
3 44 45 46
3 46 45 47
3 46 47 48
3 48 47 49
3 48 49 50
3 50 49 51
3 50 51 52
3 52 51 53
3 52 53 54
3 54 53 55
3 54 55 56
3 56 55 57
3 56 57 58
3 58 57 59
3 58 59 60
3 60 59 61
3 60 61 62
3 62 61 63
3 62 63 64
3 64 63 65
3 64 65 66
3 66 65 67
3 66 67 68
3 68 67 69
3 68 69 70
3 70 69 71
3 70 71 72
3 72 71 73
3 72 73 74
3 74 73 75
3 74 75 76
3 76 75 77
3 76 77 78
3 78 77 79
3 78 79 80
3 80 79 81
3 80 81 82
3 82 81 83
3 82 83 84
3 84 83 85
3 84 85 86
3 86 85 87
3 86 87 88
3 88 87 89
3 88 89 90
3 90 89 91
3 90 91 92
3 92 91 93
3 92 93 94
3 94 93 95
3 94 95 96
3 96 95 97
3 96 97 98
3 98 97 99
3 98 99 100
3 100 99 101
3 100 101 102
3 104 103 105
3 104 105 106
3 106 105 107
3 106 107 108
3 108 107 109
3 108 109 110
3 110 109 111
3 110 111 112
3 112 111 113
3 112 113 114
3 114 113 115
3 114 115 116
3 116 115 117
3 116 117 118
3 118 117 119
3 118 119 120
3 120 119 121
3 120 121 122
3 122 121 123
3 122 123 124
3 126 125 127
3 126 127 128
3 128 127 129
3 128 129 130
3 130 129 131
3 130 131 132
3 132 131 133
3 132 133 134
3 136 135 137
3 136 137 138
3 138 137 139
3 138 139 140
3 142 141 143
3 142 143 144
3 144 143 145
3 144 145 146
3 146 145 147
3 146 147 148
3 148 147 149
3 148 149 150
3 150 149 151
3 150 151 152
3 152 151 153
3 155 154 156
3 155 156 157
3 157 156 158
3 157 158 159
3 159 158 160
3 159 160 161
3 163 162 164
3 163 164 165
3 165 164 166
3 165 166 167
3 167 166 168
3 167 168 169
3 169 168 170
3 169 170 171
3 171 170 172
3 171 172 173
3 173 172 174
3 173 174 175
3 175 174 176
3 175 176 177
3 177 176 178
3 177 178 179
3 179 178 180
3 179 180 181
3 181 180 182
3 181 182 183
3 183 182 184
3 183 184 185
3 187 186 188
3 187 188 189
3 189 188 190
3 189 190 191
3 191 190 192
3 191 192 193
3 193 192 194
3 193 194 195
3 195 194 196
3 195 196 197
3 197 196 198
3 197 198 199
3 199 198 200
3 199 200 201
3 201 200 202
3 201 202 203
3 203 202 204
3 203 204 205
3 205 204 206
3 205 206 207
3 207 206 208
3 207 208 209
3 209 208 210
3 209 210 211
3 211 210 212
3 211 212 213
3 215 214 216
3 215 216 217
3 217 216 218
3 217 218 219
3 219 218 220
3 219 220 221
3 223 222 224
3 223 224 225
3 225 224 226
3 225 226 227
3 227 226 228
3 227 228 229
3 229 228 230
3 232 231 233
3 235 234 236
3 235 236 237
3 237 236 238
3 237 238 239
3 239 238 240
3 239 240 241
3 241 240 242
3 241 242 243
3 243 242 244
3 243 244 245
3 245 244 246
3 245 246 247
3 249 248 250
3 249 250 251
3 251 250 252
3 251 252 253
3 253 252 254
3 253 254 255
3 255 254 256
3 258 257 259
3 261 260 262
3 261 262 263
3 263 262 264
3 263 264 265
3 267 266 268
3 267 268 269
3 269 268 270
3 269 270 271
3 271 270 272
3 274 273 275
3 274 275 276
3 276 275 277
3 279 278 280
3 282 281 283
3 282 283 284
3 284 283 285
3 284 285 286
3 286 285 287
3 286 287 288
3 288 287 289
3 288 289 290
3 292 291 293
3 292 293 294
3 296 295 297
3 296 297 298
3 298 297 299
3 298 299 300
3 300 299 301
3 300 301 302
3 302 301 303
3 302 303 304
3 306 305 307
3 306 307 308
3 308 307 309
3 308 309 310
3 312 311 313
3 315 314 316
3 315 316 317
3 317 316 318
3 317 318 319
3 321 320 322
3 324 323 325
3 324 325 326
3 326 325 327
3 326 327 328
3 328 327 329
3 331 330 332
3 334 333 335
3 334 335 336
3 336 335 337
3 336 337 338
3 338 337 339
3 338 339 340
3 340 339 341
3 340 341 342
3 342 341 343
3 345 344 346
3 345 346 347
3 347 346 348
3 347 348 349
3 351 350 352
3 351 352 353
3 353 352 354
3 353 354 355
3 355 354 356
3 355 356 357
3 357 356 358
3 357 358 359
3 361 360 362
3 361 362 363
3 363 362 364
3 363 364 365
3 365 364 366
3 365 366 367
3 367 366 368
3 367 368 369
3 369 368 370
3 369 370 371
3 371 370 372
3 371 372 373
3 375 374 376
3 378 377 379
3 378 379 380
3 380 379 381
3 383 382 384
3 386 385 387
3 386 387 388
3 388 387 389
3 388 389 390
3 392 391 393
3 392 393 394
3 394 393 395
3 394 395 396
3 396 395 397
3 396 397 398
3 398 397 399
3 398 399 400
3 402 401 403
3 402 403 404
3 404 403 405
3 404 405 406
3 406 405 407
3 406 407 408
3 408 407 409
3 408 409 410
3 410 409 411
3 410 411 412
3 412 411 413
3 412 413 414
3 414 413 415
3 414 415 416
3 418 417 419
3 418 419 420
3 420 419 421
3 423 422 424
3 423 424 425
3 425 424 426
3 428 427 429
3 428 429 430
3 430 429 431
3 430 431 432
3 432 431 433
3 432 433 434
3 436 435 437
3 436 437 438
3 438 437 439
3 438 439 440
3 440 439 441
3 440 441 442
3 442 441 443
3 442 443 444
3 444 443 445
3 444 445 446
3 446 445 447
3 446 447 448
3 450 449 451
3 450 451 452
3 452 451 453
3 452 453 454
3 456 455 457
3 456 457 458
3 458 457 459
3 458 459 460
3 460 459 461
3 463 462 464
3 463 464 465
3 465 464 466
3 468 467 469
3 471 470 472
3 471 472 473
3 475 474 476
3 475 476 477
3 477 476 478
3 477 478 479
3 479 478 480
3 482 481 483
3 485 484 486
3 485 486 487
3 487 486 488
3 487 488 489
3 489 488 490
3 489 490 491
3 493 492 494
3 493 494 495
3 495 494 496
3 495 496 497
3 499 498 500
3 499 500 501
3 501 500 502
3 501 502 503
3 503 502 504
3 506 505 507
3 506 507 508
3 508 507 509
3 508 509 510
3 510 509 511
3 510 511 512
3 512 511 513
3 512 513 514
3 514 513 515
3 514 515 516
3 516 515 517
3 516 517 518
3 518 517 519
3 521 520 522
3 521 522 523
3 523 522 524
3 523 524 525
3 525 524 526
3 525 526 527
3 527 526 528
3 530 529 531
3 533 532 534
3 536 535 537
3 536 537 538
3 538 537 539
3 538 539 540
3 542 541 543
3 542 543 544
3 544 543 545
3 544 545 546
3 548 547 549
3 548 549 550
3 552 551 553
3 555 554 556
3 558 557 559
3 561 560 562
3 561 562 563
3 563 562 564
3 566 565 567
3 566 567 568
3 568 567 569
3 568 569 570
3 570 569 571
3 573 572 574
3 573 574 575
3 577 576 578
3 577 578 579
3 579 578 580
3 582 581 583
3 585 584 586
3 588 587 589
3 591 590 592
3 594 593 595
3 594 595 596
3 598 597 599
3 598 599 600
3 602 601 603
3 602 603 604
3 604 603 605
3 604 605 606
3 606 605 607
3 609 608 610
3 609 610 611
3 611 610 612
3 614 613 615
3 617 616 618
3 620 619 621
3 623 622 624
3 626 625 627
3 629 628 630
3 632 631 633
3 635 634 636
3 635 636 637
3 637 636 638
3 640 639 641
3 643 642 644
3 646 645 647
3 646 647 648
3 648 647 649
3 651 650 652
3 651 652 653
3 653 652 654
3 656 655 657
3 659 658 660
3 659 660 661
3 661 660 662
3 661 662 663
3 665 664 666
3 668 667 669
3 671 670 672
3 671 672 673
3 675 674 676
3 675 676 677
3 677 676 678
3 680 679 681
3 680 681 682
3 684 683 685
3 687 686 688
3 690 689 691
3 690 691 692
3 694 693 695
3 697 696 698
3 700 699 701
3 703 702 704
3 703 704 705
3 705 704 706
3 708 707 709
3 711 710 712
3 711 712 713
3 715 714 716
3 715 716 717
3 717 716 718
3 720 719 721
3 723 722 724
3 726 725 727
3 726 727 728
3 728 727 729
3 731 730 732
3 734 733 735
3 737 736 738
3 740 739 741
3 743 742 744
3 743 744 745
3 745 744 746
3 748 747 749
3 751 750 752
3 754 753 755
3 757 756 758
3 760 759 761
