ply
format ascii 1.0
comment Created for SotC explore OOTBGE
element vertex 713
property float x
property float y
property float z
property float nx
property float ny
property float nz
property uchar red
property uchar green
property uchar blue
element face 473
property list uchar uint vertex_indices
end_header
-10.87889 -1.38387 7.40274 0.0 0.0 -1.0 255 255 255
-12.37626 -1.16435 7.48905 0.0 0.0 -1.0 255 255 255
-10.77018 0.62055 7.78684 0.0 0.0 -1.0 255 255 255
-13.23324 0.86680 7.79591 0.0 0.0 -1.0 255 255 255
-11.86051 2.42047 6.35773 0.0 0.0 -1.0 255 255 255
-13.10758 1.99186 5.60885 0.0 0.0 -1.0 255 255 255
-10.76719 1.81480 6.35773 0.0 0.0 -1.0 255 255 255
-10.76426 0.61891 4.92895 0.0 0.0 -1.0 255 255 255
-10.77018 0.62055 7.78684 0.0 0.0 -1.0 255 255 255
-10.88864 -1.34525 5.31044 0.0 0.0 -1.0 255 255 255
-10.87889 -1.38387 7.40274 0.0 0.0 -1.0 255 255 255
-12.25939 -1.90482 6.35773 0.0 0.0 -1.0 255 255 255
-12.37626 -1.16435 7.48905 0.0 0.0 -1.0 255 255 255
-13.34637 -0.84877 7.06370 0.0 0.0 -1.0 255 255 255
-13.23324 0.86680 7.79591 0.0 0.0 -1.0 255 255 255
-10.76719 1.81480 6.35773 0.0 0.0 -1.0 255 255 255
-10.77018 0.62055 7.78684 0.0 0.0 -1.0 255 255 255
-11.86051 2.42047 6.35773 0.0 0.0 -1.0 255 255 255
-12.87538 -0.93205 5.21507 0.0 0.0 -1.0 255 255 255
-13.34637 -0.84877 7.06370 0.0 0.0 -1.0 255 255 255
-12.87538 -0.93205 5.21507 0.0 0.0 -1.0 255 255 255
-12.25939 -1.90482 6.35773 0.0 0.0 -1.0 255 255 255
-10.88864 -1.34525 5.31044 0.0 0.0 -1.0 255 255 255
-12.87538 -0.93205 5.21507 0.0 0.0 -1.0 255 255 255
-10.88864 -1.34525 5.31044 0.0 0.0 -1.0 255 255 255
-12.77364 0.43904 4.79974 0.0 0.0 -1.0 255 255 255
-10.76426 0.61891 4.92895 0.0 0.0 -1.0 255 255 255
-13.10758 1.99186 5.60885 0.0 0.0 -1.0 255 255 255
-9.31274 -0.43636 7.51762 0.0 0.0 -1.0 255 255 255
-9.78708 -1.45630 6.35919 0.0 0.0 -1.0 255 255 255
-12.47292 -0.91826 6.37945 0.0 0.0 -1.0 255 255 255
-8.96453 -0.46210 4.81946 0.0 0.0 -1.0 255 255 255
-12.34493 0.91203 5.34730 0.0 0.0 -1.0 255 255 255
-4.32969 1.35190 5.52046 0.0 0.0 -1.0 255 255 255
-6.64346 1.82467 6.33776 0.0 0.0 -1.0 255 255 255
-3.29982 1.99368 6.50131 0.0 0.0 -1.0 255 255 255
-2.77167 1.31935 7.94369 0.0 0.0 -1.0 255 255 255
-2.14019 2.89273 5.74657 0.0 0.0 -1.0 255 255 255
-1.05368 3.18998 8.13791 0.0 0.0 -1.0 255 255 255
-0.93125 3.65994 7.75341 0.0 0.0 -1.0 255 255 255
-1.39801 3.14488 8.44962 0.0 0.0 -1.0 255 255 255
-1.11675 3.52546 8.96098 0.0 0.0 -1.0 255 255 255
-0.71152 2.99437 8.65829 0.0 0.0 -1.0 255 255 255
-0.61106 3.56406 8.86469 0.0 0.0 -1.0 255 255 255
-0.00000 2.34384 8.81566 0.0 0.0 -1.0 255 255 255
0.61106 3.56406 8.86469 0.0 0.0 -1.0 255 255 255
0.71152 2.99437 8.65829 0.0 0.0 -1.0 255 255 255
1.11675 3.52546 8.96098 0.0 0.0 -1.0 255 255 255
1.39801 3.14488 8.44962 0.0 0.0 -1.0 255 255 255
0.93125 3.65994 7.75341 0.0 0.0 -1.0 255 255 255
1.05368 3.18998 8.13791 0.0 0.0 -1.0 255 255 255
2.14019 2.89273 5.74657 0.0 0.0 -1.0 255 255 255
2.77167 1.31935 7.94369 0.0 0.0 -1.0 255 255 255
3.29982 1.99368 6.50131 0.0 0.0 -1.0 255 255 255
6.64346 1.82467 6.33776 0.0 0.0 -1.0 255 255 255
4.32969 1.35190 5.52046 0.0 0.0 -1.0 255 255 255
12.34493 0.91203 5.34730 0.0 0.0 -1.0 255 255 255
8.96453 -0.46210 4.81946 0.0 0.0 -1.0 255 255 255
12.47292 -0.91826 6.37945 0.0 0.0 -1.0 255 255 255
9.78708 -1.45630 6.35919 0.0 0.0 -1.0 255 255 255
9.31274 -0.43636 7.51762 0.0 0.0 -1.0 255 255 255
-3.47276 -0.91296 7.93580 0.0 0.0 -1.0 255 255 255
-2.77167 1.31935 7.94369 0.0 0.0 -1.0 255 255 255
-3.47276 -0.91296 7.93580 0.0 0.0 -1.0 255 255 255
-0.30104 0.99392 8.90532 0.0 0.0 -1.0 255 255 255
-0.41234 -1.31660 8.04260 0.0 0.0 -1.0 255 255 255
-0.00000 -0.51204 9.19341 0.0 0.0 -1.0 255 255 255
-0.00000 -1.13177 9.13013 0.0 0.0 -1.0 255 255 255
0.41234 -1.31660 8.04260 0.0 0.0 -1.0 255 255 255
-0.00000 -1.40521 8.72885 0.0 0.0 -1.0 255 255 255
-0.00000 -2.02685 8.60269 0.0 0.0 -1.0 255 255 255
-0.41234 -1.31660 8.04260 0.0 0.0 -1.0 255 255 255
-0.00000 -2.14659 8.10899 0.0 0.0 -1.0 255 255 255
-0.82209 -2.70224 6.35969 0.0 0.0 -1.0 255 255 255
-0.00000 -2.95617 5.78801 0.0 0.0 -1.0 255 255 255
-0.00000 -1.38938 2.68622 0.0 0.0 -1.0 255 255 255
0.82209 -2.70224 6.35969 0.0 0.0 -1.0 255 255 255
1.52148 -1.63786 3.84793 0.0 0.0 -1.0 255 255 255
1.86607 -2.45392 5.46260 0.0 0.0 -1.0 255 255 255
2.49045 -1.05095 3.55236 0.0 0.0 -1.0 255 255 255
2.56670 -2.11842 5.64629 0.0 0.0 -1.0 255 255 255
-0.00000 -1.38938 2.68622 0.0 0.0 -1.0 255 255 255
-1.56389 -1.21625 2.74370 0.0 0.0 -1.0 255 255 255
-0.00000 -1.38938 2.68622 0.0 0.0 -1.0 255 255 255
-1.52148 -1.63786 3.84793 0.0 0.0 -1.0 255 255 255
-0.82209 -2.70224 6.35969 0.0 0.0 -1.0 255 255 255
-1.86607 -2.45392 5.46260 0.0 0.0 -1.0 255 255 255
-2.49045 -1.05095 3.55236 0.0 0.0 -1.0 255 255 255
-2.56670 -2.11842 5.64629 0.0 0.0 -1.0 255 255 255
-2.49045 -1.05095 3.55236 0.0 0.0 -1.0 255 255 255
-1.86607 -2.45392 5.46260 0.0 0.0 -1.0 255 255 255
-1.52148 -1.63786 3.84793 0.0 0.0 -1.0 255 255 255
-3.29982 1.99368 6.50131 0.0 0.0 -1.0 255 255 255
-4.32969 1.35190 5.52046 0.0 0.0 -1.0 255 255 255
-3.29982 1.99368 6.50131 0.0 0.0 -1.0 255 255 255
-3.08381 1.05454 4.25682 0.0 0.0 -1.0 255 255 255
-3.16966 1.69937 4.12455 0.0 0.0 -1.0 255 255 255
-2.73312 0.03149 3.43091 0.0 0.0 -1.0 255 255 255
-2.22146 1.04555 2.36909 0.0 0.0 -1.0 255 255 255
-1.96635 -0.47937 0.35265 0.0 0.0 -1.0 255 255 255
-2.00137 0.73788 0.14255 0.0 0.0 -1.0 255 255 255
-2.09697 0.65358 -0.87871 0.0 0.0 -1.0 255 255 255
-1.33291 1.37235 -0.17320 0.0 0.0 -1.0 255 255 255
-1.74939 1.22497 -1.21042 0.0 0.0 -1.0 255 255 255
-0.52218 1.15875 -1.51654 0.0 0.0 -1.0 255 255 255
0.61106 3.56406 8.86469 0.0 0.0 -1.0 255 255 255
-0.61106 3.56406 8.86469 0.0 0.0 -1.0 255 255 255
0.61106 3.56406 8.86469 0.0 0.0 -1.0 255 255 255
-0.26397 4.38863 8.38351 0.0 0.0 -1.0 255 255 255
0.26397 4.38863 8.38351 0.0 0.0 -1.0 255 255 255
0.39782 5.03769 7.46138 0.0 0.0 -1.0 255 255 255
0.93125 3.65994 7.75341 0.0 0.0 -1.0 255 255 255
0.76035 4.91353 6.61353 0.0 0.0 -1.0 255 255 255
0.79307 3.69772 5.68397 0.0 0.0 -1.0 255 255 255
-0.00000 4.48086 5.76797 0.0 0.0 -1.0 255 255 255
-0.00000 3.92340 4.39049 0.0 0.0 -1.0 255 255 255
-0.79307 3.69772 5.68397 0.0 0.0 -1.0 255 255 255
-0.00000 2.93918 2.86799 0.0 0.0 -1.0 255 255 255
-0.87775 2.59914 3.05746 0.0 0.0 -1.0 255 255 255
-0.00000 2.02267 2.16759 0.0 0.0 -1.0 255 255 255
-1.40133 1.97628 2.18883 0.0 0.0 -1.0 255 255 255
-1.33291 1.37235 -0.17320 0.0 0.0 -1.0 255 255 255
-2.00137 0.73788 0.14255 0.0 0.0 -1.0 255 255 255
-1.05368 3.18998 8.13791 0.0 0.0 -1.0 255 255 255
-1.39801 3.14488 8.44962 0.0 0.0 -1.0 255 255 255
-1.05368 3.18998 8.13791 0.0 0.0 -1.0 255 255 255
-0.71152 2.99437 8.65829 0.0 0.0 -1.0 255 255 255
-0.30104 0.99392 8.90532 0.0 0.0 -1.0 255 255 255
-0.00000 2.34384 8.81566 0.0 0.0 -1.0 255 255 255
-0.00000 2.07984 9.58626 0.0 0.0 -1.0 255 255 255
0.30104 0.99392 8.90532 0.0 0.0 -1.0 255 255 255
-0.00000 1.47405 9.39929 0.0 0.0 -1.0 255 255 255
-0.00000 0.88487 9.72231 0.0 0.0 -1.0 255 255 255
-0.30104 0.99392 8.90532 0.0 0.0 -1.0 255 255 255
-0.00000 0.47907 9.43618 0.0 0.0 -1.0 255 255 255
-0.00000 -0.18774 9.56057 0.0 0.0 -1.0 255 255 255
0.30104 0.99392 8.90532 0.0 0.0 -1.0 255 255 255
-0.30104 0.99392 8.90532 0.0 0.0 -1.0 255 255 255
-2.77167 1.31935 7.94369 0.0 0.0 -1.0 255 255 255
-1.05368 3.18998 8.13791 0.0 0.0 -1.0 255 255 255
-3.16966 1.69937 4.12455 0.0 0.0 -1.0 255 255 255
-2.22146 1.04555 2.36909 0.0 0.0 -1.0 255 255 255
-3.16966 1.69937 4.12455 0.0 0.0 -1.0 255 255 255
-0.87775 2.59914 3.05746 0.0 0.0 -1.0 255 255 255
-2.14019 2.89273 5.74657 0.0 0.0 -1.0 255 255 255
-0.79307 3.69772 5.68397 0.0 0.0 -1.0 255 255 255
-0.93125 3.65994 7.75341 0.0 0.0 -1.0 255 255 255
-0.76035 4.91353 6.61353 0.0 0.0 -1.0 255 255 255
-0.39782 5.03769 7.46138 0.0 0.0 -1.0 255 255 255
-0.00000 5.40832 7.39475 0.0 0.0 -1.0 255 255 255
0.39782 5.03769 7.46138 0.0 0.0 -1.0 255 255 255
0.76035 4.91353 6.61353 0.0 0.0 -1.0 255 255 255
-2.04367 -2.27964 7.10214 0.0 0.0 -1.0 255 255 255
-3.47276 -0.91296 7.93580 0.0 0.0 -1.0 255 255 255
-2.04367 -2.27964 7.10214 0.0 0.0 -1.0 255 255 255
-0.41234 -1.31660 8.04260 0.0 0.0 -1.0 255 255 255
-0.82209 -2.70224 6.35969 0.0 0.0 -1.0 255 255 255
-0.00000 -2.63369 7.25318 0.0 0.0 -1.0 255 255 255
-0.00000 -2.95617 5.78801 0.0 0.0 -1.0 255 255 255
0.82209 -2.70224 6.35969 0.0 0.0 -1.0 255 255 255
-1.86607 -2.45392 5.46260 0.0 0.0 -1.0 255 255 255
-2.04367 -2.27964 7.10214 0.0 0.0 -1.0 255 255 255
-0.82209 -2.70224 6.35969 0.0 0.0 -1.0 255 255 255
-2.56670 -2.11842 5.64629 0.0 0.0 -1.0 255 255 255
-3.92805 -1.61500 6.87258 0.0 0.0 -1.0 255 255 255
-2.04367 -2.27964 7.10214 0.0 0.0 -1.0 255 255 255
-2.56670 -2.11842 5.64629 0.0 0.0 -1.0 255 255 255
-2.04367 -2.27964 7.10214 0.0 0.0 -1.0 255 255 255
-2.63438 -2.68960 5.10701 0.0 0.0 -1.0 255 255 255
-0.55379 -0.76432 -1.25885 0.0 0.0 -1.0 255 255 255
-2.03614 -0.62695 -0.88942 0.0 0.0 -1.0 255 255 255
-1.30292 -1.24302 0.14174 0.0 0.0 -1.0 255 255 255
-1.96635 -0.47937 0.35265 0.0 0.0 -1.0 255 255 255
-1.56389 -1.21625 2.74370 0.0 0.0 -1.0 255 255 255
-2.73312 0.03149 3.43091 0.0 0.0 -1.0 255 255 255
-2.49045 -1.05095 3.55236 0.0 0.0 -1.0 255 255 255
-5.19854 -0.76713 5.03277 0.0 0.0 -1.0 255 255 255
-2.56670 -2.11842 5.64629 0.0 0.0 -1.0 255 255 255
-3.92805 -1.61500 6.87258 0.0 0.0 -1.0 255 255 255
-2.03614 -0.62695 -0.88942 0.0 0.0 -1.0 255 255 255
-2.09697 0.65358 -0.87871 0.0 0.0 -1.0 255 255 255
-1.96635 -0.47937 0.35265 0.0 0.0 -1.0 255 255 255
-0.55379 -0.76432 -1.25885 0.0 0.0 -1.0 255 255 255
-1.30292 -1.24302 0.14174 0.0 0.0 -1.0 255 255 255
-0.55379 -0.76432 -1.25885 0.0 0.0 -1.0 255 255 255
-0.00000 -1.36237 -0.32811 0.0 0.0 -1.0 255 255 255
-0.00000 0.29848 -1.32828 0.0 0.0 -1.0 255 255 255
0.55379 -0.76432 -1.25885 0.0 0.0 -1.0 255 255 255
0.52218 1.15875 -1.51654 0.0 0.0 -1.0 255 255 255
-1.33291 1.37235 -0.17320 0.0 0.0 -1.0 255 255 255
-0.52218 1.15875 -1.51654 0.0 0.0 -1.0 255 255 255
-0.00000 1.38783 -0.71233 0.0 0.0 -1.0 255 255 255
-0.00000 0.29848 -1.32828 0.0 0.0 -1.0 255 255 255
0.52218 1.15875 -1.51654 0.0 0.0 -1.0 255 255 255
-0.00000 -1.36237 -0.32811 0.0 0.0 -1.0 255 255 255
-1.30292 -1.24302 0.14174 0.0 0.0 -1.0 255 255 255
1.30292 -1.24302 0.14174 0.0 0.0 -1.0 255 255 255
-0.00000 -1.38938 2.68622 0.0 0.0 -1.0 255 255 255
1.56389 -1.21625 2.74370 0.0 0.0 -1.0 255 255 255
-1.52148 -1.63786 3.84793 0.0 0.0 -1.0 255 255 255
-1.56389 -1.21625 2.74370 0.0 0.0 -1.0 255 255 255
-2.49045 -1.05095 3.55236 0.0 0.0 -1.0 255 255 255
-7.63552 -1.42132 6.18720 0.0 0.0 -1.0 255 255 255
-9.78708 -1.45630 6.35919 0.0 0.0 -1.0 255 255 255
-9.31274 -0.43636 7.51762 0.0 0.0 -1.0 255 255 255
-9.31274 -0.43636 7.51762 0.0 0.0 -1.0 255 255 255
-6.63825 -1.05853 7.60063 0.0 0.0 -1.0 255 255 255
-7.63552 -1.42132 6.18720 0.0 0.0 -1.0 255 255 255
-7.63552 -1.42132 6.18720 0.0 0.0 -1.0 255 255 255
-6.63825 -1.05853 7.60063 0.0 0.0 -1.0 255 255 255
-6.71623 -2.12481 6.27260 0.0 0.0 -1.0 255 255 255
-3.92805 -1.61500 6.87258 0.0 0.0 -1.0 255 255 255
-5.19854 -0.76713 5.03277 0.0 0.0 -1.0 255 255 255
-2.73312 0.03149 3.43091 0.0 0.0 -1.0 255 255 255
-3.08381 1.05454 4.25682 0.0 0.0 -1.0 255 255 255
-4.32969 1.35190 5.52046 0.0 0.0 -1.0 255 255 255
-2.73312 0.03149 3.43091 0.0 0.0 -1.0 255 255 255
-4.32969 1.35190 5.52046 0.0 0.0 -1.0 255 255 255
-5.19854 -0.76713 5.03277 0.0 0.0 -1.0 255 255 255
-8.96453 -0.46210 4.81946 0.0 0.0 -1.0 255 255 255
-7.63552 -1.42132 6.18720 0.0 0.0 -1.0 255 255 255
-9.78708 -1.45630 6.35919 0.0 0.0 -1.0 255 255 255
-12.47292 -0.91826 6.37945 0.0 0.0 -1.0 255 255 255
-12.35110 0.82384 7.37334 0.0 0.0 -1.0 255 255 255
-9.31274 -0.43636 7.51762 0.0 0.0 -1.0 255 255 255
-10.02734 1.05292 7.52671 0.0 0.0 -1.0 255 255 255
-6.63825 -1.05853 7.60063 0.0 0.0 -1.0 255 255 255
-5.78897 0.06165 8.09907 0.0 0.0 -1.0 255 255 255
-3.92805 -1.61500 6.87258 0.0 0.0 -1.0 255 255 255
-3.47276 -0.91296 7.93580 0.0 0.0 -1.0 255 255 255
-2.04367 -2.27964 7.10214 0.0 0.0 -1.0 255 255 255
-6.71623 -2.12481 6.27260 0.0 0.0 -1.0 255 255 255
-5.19854 -0.76713 5.03277 0.0 0.0 -1.0 255 255 255
-7.63552 -1.42132 6.18720 0.0 0.0 -1.0 255 255 255
-0.93125 3.65994 7.75341 0.0 0.0 -1.0 255 255 255
-0.39782 5.03769 7.46138 0.0 0.0 -1.0 255 255 255
-0.26397 4.38863 8.38351 0.0 0.0 -1.0 255 255 255
0.39782 5.03769 7.46138 0.0 0.0 -1.0 255 255 255
-3.29982 1.99368 6.50131 0.0 0.0 -1.0 255 255 255
-3.16966 1.69937 4.12455 0.0 0.0 -1.0 255 255 255
-2.14019 2.89273 5.74657 0.0 0.0 -1.0 255 255 255
-2.63438 -2.68960 5.10701 0.0 0.0 -1.0 255 255 255
-2.04367 -2.27964 7.10214 0.0 0.0 -1.0 255 255 255
-1.86607 -2.45392 5.46260 0.0 0.0 -1.0 255 255 255
-0.93125 3.65994 7.75341 0.0 0.0 -1.0 255 255 255
-0.26397 4.38863 8.38351 0.0 0.0 -1.0 255 255 255
-0.93125 3.65994 7.75341 0.0 0.0 -1.0 255 255 255
-0.61106 3.56406 8.86469 0.0 0.0 -1.0 255 255 255
-1.11675 3.52546 8.96098 0.0 0.0 -1.0 255 255 255
-12.30369 1.50189 6.41841 0.0 0.0 -1.0 255 255 255
-12.34493 0.91203 5.34730 0.0 0.0 -1.0 255 255 255
-12.30369 1.50189 6.41841 0.0 0.0 -1.0 255 255 255
-10.02734 1.05292 7.52671 0.0 0.0 -1.0 255 255 255
-12.35110 0.82384 7.37334 0.0 0.0 -1.0 255 255 255
-10.02734 1.05292 7.52671 0.0 0.0 -1.0 255 255 255
-12.34493 0.91203 5.34730 0.0 0.0 -1.0 255 255 255
-6.64346 1.82467 6.33776 0.0 0.0 -1.0 255 255 255
-10.02734 1.05292 7.52671 0.0 0.0 -1.0 255 255 255
-6.64346 1.82467 6.33776 0.0 0.0 -1.0 255 255 255
-5.78897 0.06165 8.09907 0.0 0.0 -1.0 255 255 255
-2.77167 1.31935 7.94369 0.0 0.0 -1.0 255 255 255
-3.47276 -0.91296 7.93580 0.0 0.0 -1.0 255 255 255
-1.99785 1.55734 -1.17151 0.0 0.0 -1.0 255 255 255
-0.89553 2.00678 -4.42613 0.0 0.0 -1.0 255 255 255
-0.31344 1.44381 -1.53714 0.0 0.0 -1.0 255 255 255
-0.37806 0.36607 -4.35490 0.0 0.0 -1.0 255 255 255
-0.24844 -0.17703 -3.29253 0.0 0.0 -1.0 255 255 255
-0.61709 -1.17052 -6.56828 0.0 0.0 -1.0 255 255 255
-1.24906 -1.36679 -6.74599 0.0 0.0 -1.0 255 255 255
-1.03757 -1.01716 -7.50134 0.0 0.0 -1.0 255 255 255
-1.92805 -0.95304 -7.49776 0.0 0.0 -1.0 255 255 255
-1.42488 -0.71624 -8.73330 0.0 0.0 -1.0 255 255 255
-1.85280 -0.97233 -8.73330 0.0 0.0 -1.0 255 255 255
-2.24897 -0.71796 -8.73330 0.0 0.0 -1.0 255 255 255
-1.92805 -0.95304 -7.49776 0.0 0.0 -1.0 255 255 255
-2.65870 0.56930 -7.82761 0.0 0.0 -1.0 255 255 255
-2.39121 -0.05429 -7.21923 0.0 0.0 -1.0 255 255 255
-1.97950 1.42293 -7.54947 0.0 0.0 -1.0 255 255 255
-2.00860 0.72524 -5.73099 0.0 0.0 -1.0 255 255 255
-1.42562 1.55355 -5.80461 0.0 0.0 -1.0 255 255 255
-1.90300 2.06424 -4.49220 0.0 0.0 -1.0 255 255 255
-0.89553 2.00678 -4.42613 0.0 0.0 -1.0 255 255 255
-1.99785 1.55734 -1.17151 0.0 0.0 -1.0 255 255 255
-2.39121 -0.05429 -7.21923 0.0 0.0 -1.0 255 255 255
-2.00860 0.72524 -5.73099 0.0 0.0 -1.0 255 255 255
-2.39121 -0.05429 -7.21923 0.0 0.0 -1.0 255 255 255
-2.43823 0.33757 -4.30105 0.0 0.0 -1.0 255 255 255
-2.07539 -1.01674 -5.91961 0.0 0.0 -1.0 255 255 255
-2.30145 -0.40601 -3.22096 0.0 0.0 -1.0 255 255 255
-1.32886 -0.75591 -3.22821 0.0 0.0 -1.0 255 255 255
-2.17939 -1.19488 -0.64659 0.0 0.0 -1.0 255 255 255
-0.65981 -1.18704 -1.30567 0.0 0.0 -1.0 255 255 255
-0.55379 -0.76432 -1.25885 0.0 0.0 -1.0 255 255 255
-0.31344 1.44381 -1.53714 0.0 0.0 -1.0 255 255 255
-1.99785 1.55734 -1.17151 0.0 0.0 -1.0 255 255 255
-0.55379 -0.76432 -1.25885 0.0 0.0 -1.0 255 255 255
-2.17939 -1.19488 -0.64659 0.0 0.0 -1.0 255 255 255
-2.55056 0.68336 -0.38994 0.0 0.0 -1.0 255 255 255
-2.30145 -0.40601 -3.22096 0.0 0.0 -1.0 255 255 255
-2.43823 0.33757 -4.30105 0.0 0.0 -1.0 255 255 255
-0.55379 -0.76432 -1.25885 0.0 0.0 -1.0 255 255 255
-2.55056 0.68336 -0.38994 0.0 0.0 -1.0 255 255 255
-1.99785 1.55734 -1.17151 0.0 0.0 -1.0 255 255 255
-1.90300 2.06424 -4.49220 0.0 0.0 -1.0 255 255 255
-2.22146 1.04555 2.36909 0.0 0.0 -1.0 255 255 255
-2.00137 0.73788 0.14255 0.0 0.0 -1.0 255 255 255
-1.40133 1.97628 2.18883 0.0 0.0 -1.0 255 255 255
-0.00000 2.07984 9.58626 0.0 0.0 -1.0 255 255 255
-0.00000 1.47405 9.39929 0.0 0.0 -1.0 255 255 255
-0.30104 0.99392 8.90532 0.0 0.0 -1.0 255 255 255
-0.30104 0.99392 8.90532 0.0 0.0 -1.0 255 255 255
-0.00000 -0.18774 9.56057 0.0 0.0 -1.0 255 255 255
-0.00000 -0.51204 9.19341 0.0 0.0 -1.0 255 255 255
0.30104 0.99392 8.90532 0.0 0.0 -1.0 255 255 255
0.41234 -1.31660 8.04260 0.0 0.0 -1.0 255 255 255
3.47276 -0.91296 7.93580 0.0 0.0 -1.0 255 255 255
2.04367 -2.27964 7.10214 0.0 0.0 -1.0 255 255 255
-0.41234 -1.31660 8.04260 0.0 0.0 -1.0 255 255 255
-0.00000 -1.13177 9.13013 0.0 0.0 -1.0 255 255 255
-0.00000 -1.40521 8.72885 0.0 0.0 -1.0 255 255 255
-0.79307 3.69772 5.68397 0.0 0.0 -1.0 255 255 255
-0.00000 4.48086 5.76797 0.0 0.0 -1.0 255 255 255
-0.76035 4.91353 6.61353 0.0 0.0 -1.0 255 255 255
-0.00000 5.04370 5.92114 0.0 0.0 -1.0 255 255 255
-0.00000 5.40832 7.39475 0.0 0.0 -1.0 255 255 255
0.76035 4.91353 6.61353 0.0 0.0 -1.0 255 255 255
-0.24844 -0.17703 -3.29253 0.0 0.0 -1.0 255 255 255
-1.24906 -1.36679 -6.74599 0.0 0.0 -1.0 255 255 255
-0.24844 -0.17703 -3.29253 0.0 0.0 -1.0 255 255 255
-1.32886 -0.75591 -3.22821 0.0 0.0 -1.0 255 255 255
-0.65981 -1.18704 -1.30567 0.0 0.0 -1.0 255 255 255
-0.65981 -1.18704 -1.30567 0.0 0.0 -1.0 255 255 255
-0.31344 1.44381 -1.53714 0.0 0.0 -1.0 255 255 255
-0.24844 -0.17703 -3.29253 0.0 0.0 -1.0 255 255 255
-1.32886 -0.75591 -3.22821 0.0 0.0 -1.0 255 255 255
-1.24906 -1.36679 -6.74599 0.0 0.0 -1.0 255 255 255
-2.07539 -1.01674 -5.91961 0.0 0.0 -1.0 255 255 255
-1.92805 -0.95304 -7.49776 0.0 0.0 -1.0 255 255 255
-2.39121 -0.05429 -7.21923 0.0 0.0 -1.0 255 255 255
-1.42488 -0.71624 -8.73330 0.0 0.0 -1.0 255 255 255
-1.03757 -1.01716 -7.50134 0.0 0.0 -1.0 255 255 255
-1.42488 -0.71624 -8.73330 0.0 0.0 -1.0 255 255 255
-0.99695 -0.97233 -8.73330 0.0 0.0 -1.0 255 255 255
-0.66408 -0.70439 -8.73330 0.0 0.0 -1.0 255 255 255
-1.03757 -1.01716 -7.50134 0.0 0.0 -1.0 255 255 255
-0.40192 -0.05219 -7.50786 0.0 0.0 -1.0 255 255 255
-0.61709 -1.17052 -6.56828 0.0 0.0 -1.0 255 255 255
-0.37806 0.36607 -4.35490 0.0 0.0 -1.0 255 255 255
-2.55056 0.68336 -0.38994 0.0 0.0 -1.0 255 255 255
-2.43823 0.33757 -4.30105 0.0 0.0 -1.0 255 255 255
-1.90300 2.06424 -4.49220 0.0 0.0 -1.0 255 255 255
-2.00860 0.72524 -5.73099 0.0 0.0 -1.0 255 255 255
-0.37806 0.36607 -4.35490 0.0 0.0 -1.0 255 255 255
-0.81778 0.77483 -5.72771 0.0 0.0 -1.0 255 255 255
-0.40192 -0.05219 -7.50786 0.0 0.0 -1.0 255 255 255
-0.83327 1.54927 -7.68455 0.0 0.0 -1.0 255 255 255
-0.30579 0.73050 -8.73330 0.0 0.0 -1.0 255 255 255
-0.71217 1.65795 -8.73330 0.0 0.0 -1.0 255 255 255
-2.16628 1.67852 -8.73330 0.0 0.0 -1.0 255 255 255
-1.42488 1.88326 -8.73330 0.0 0.0 -1.0 255 255 255
-1.97950 1.42293 -7.54947 0.0 0.0 -1.0 255 255 255
-0.83327 1.54927 -7.68455 0.0 0.0 -1.0 255 255 255
-1.42562 1.55355 -5.80461 0.0 0.0 -1.0 255 255 255
-0.81778 0.77483 -5.72771 0.0 0.0 -1.0 255 255 255
-0.89553 2.00678 -4.42613 0.0 0.0 -1.0 255 255 255
-0.37806 0.36607 -4.35490 0.0 0.0 -1.0 255 255 255
-2.16628 1.67852 -8.73330 0.0 0.0 -1.0 255 255 255
-1.97950 1.42293 -7.54947 0.0 0.0 -1.0 255 255 255
-2.16628 1.67852 -8.73330 0.0 0.0 -1.0 255 255 255
-2.65870 0.56930 -7.82761 0.0 0.0 -1.0 255 255 255
-2.56205 0.74407 -8.73330 0.0 0.0 -1.0 255 255 255
-2.54830 -0.06882 -8.73330 0.0 0.0 -1.0 255 255 255
-0.30146 -0.06882 -8.73330 0.0 0.0 -1.0 255 255 255
-1.42488 -0.71624 -8.73330 0.0 0.0 -1.0 255 255 255
-0.66408 -0.70439 -8.73330 0.0 0.0 -1.0 255 255 255
-0.71217 1.65795 -8.73330 0.0 0.0 -1.0 255 255 255
-0.83327 1.54927 -7.68455 0.0 0.0 -1.0 255 255 255
-1.42488 1.88326 -8.73330 0.0 0.0 -1.0 255 255 255
-2.16628 1.67852 -8.73330 0.0 0.0 -1.0 255 255 255
-2.56205 0.74407 -8.73330 0.0 0.0 -1.0 255 255 255
-0.30579 0.73050 -8.73330 0.0 0.0 -1.0 255 255 255
-0.30146 -0.06882 -8.73330 0.0 0.0 -1.0 255 255 255
-0.40192 -0.05219 -7.50786 0.0 0.0 -1.0 255 255 255
-0.66408 -0.70439 -8.73330 0.0 0.0 -1.0 255 255 255
-2.54830 -0.06882 -8.73330 0.0 0.0 -1.0 255 255 255
-2.65870 0.56930 -7.82761 0.0 0.0 -1.0 255 255 255
-2.24897 -0.71796 -8.73330 0.0 0.0 -1.0 255 255 255
-2.54830 -0.06882 -8.73330 0.0 0.0 -1.0 255 255 255
-2.24897 -0.71796 -8.73330 0.0 0.0 -1.0 255 255 255
-1.42488 -0.71624 -8.73330 0.0 0.0 -1.0 255 255 255
13.34637 -0.84877 7.06370 0.0 0.0 -1.0 255 255 255
12.87538 -0.93205 5.21507 0.0 0.0 -1.0 255 255 255
12.25939 -1.90482 6.35773 0.0 0.0 -1.0 255 255 255
10.88864 -1.34525 5.31044 0.0 0.0 -1.0 255 255 255
10.87889 -1.38387 7.40274 0.0 0.0 -1.0 255 255 255
10.77018 0.62055 7.78684 0.0 0.0 -1.0 255 255 255
12.37626 -1.16435 7.48905 0.0 0.0 -1.0 255 255 255
13.23324 0.86680 7.79591 0.0 0.0 -1.0 255 255 255
13.34637 -0.84877 7.06370 0.0 0.0 -1.0 255 255 255
13.23324 0.86680 7.79591 0.0 0.0 -1.0 255 255 255
10.77018 0.62055 7.78684 0.0 0.0 -1.0 255 255 255
13.23324 0.86680 7.79591 0.0 0.0 -1.0 255 255 255
11.86051 2.42047 6.35773 0.0 0.0 -1.0 255 255 255
13.10758 1.99186 5.60885 0.0 0.0 -1.0 255 255 255
10.76719 1.81480 6.35773 0.0 0.0 -1.0 255 255 255
10.76426 0.61891 4.92895 0.0 0.0 -1.0 255 255 255
10.77018 0.62055 7.78684 0.0 0.0 -1.0 255 255 255
10.88864 -1.34525 5.31044 0.0 0.0 -1.0 255 255 255
12.25939 -1.90482 6.35773 0.0 0.0 -1.0 255 255 255
10.87889 -1.38387 7.40274 0.0 0.0 -1.0 255 255 255
12.37626 -1.16435 7.48905 0.0 0.0 -1.0 255 255 255
10.76719 1.81480 6.35773 0.0 0.0 -1.0 255 255 255
11.86051 2.42047 6.35773 0.0 0.0 -1.0 255 255 255
10.77018 0.62055 7.78684 0.0 0.0 -1.0 255 255 255
12.77364 0.43904 4.79974 0.0 0.0 -1.0 255 255 255
13.10758 1.99186 5.60885 0.0 0.0 -1.0 255 255 255
10.76426 0.61891 4.92895 0.0 0.0 -1.0 255 255 255
12.77364 0.43904 4.79974 0.0 0.0 -1.0 255 255 255
10.76426 0.61891 4.92895 0.0 0.0 -1.0 255 255 255
10.88864 -1.34525 5.31044 0.0 0.0 -1.0 255 255 255
12.77364 0.43904 4.79974 0.0 0.0 -1.0 255 255 255
10.88864 -1.34525 5.31044 0.0 0.0 -1.0 255 255 255
12.87538 -0.93205 5.21507 0.0 0.0 -1.0 255 255 255
12.25939 -1.90482 6.35773 0.0 0.0 -1.0 255 255 255
12.37626 -1.16435 7.48905 0.0 0.0 -1.0 255 255 255
13.34637 -0.84877 7.06370 0.0 0.0 -1.0 255 255 255
-0.00000 -1.38938 2.68622 0.0 0.0 -1.0 255 255 255
1.52148 -1.63786 3.84793 0.0 0.0 -1.0 255 255 255
1.56389 -1.21625 2.74370 0.0 0.0 -1.0 255 255 255
2.49045 -1.05095 3.55236 0.0 0.0 -1.0 255 255 255
3.29982 1.99368 6.50131 0.0 0.0 -1.0 255 255 255
2.14019 2.89273 5.74657 0.0 0.0 -1.0 255 255 255
3.29982 1.99368 6.50131 0.0 0.0 -1.0 255 255 255
3.16966 1.69937 4.12455 0.0 0.0 -1.0 255 255 255
3.08381 1.05454 4.25682 0.0 0.0 -1.0 255 255 255
2.73312 0.03149 3.43091 0.0 0.0 -1.0 255 255 255
4.32969 1.35190 5.52046 0.0 0.0 -1.0 255 255 255
5.19854 -0.76713 5.03277 0.0 0.0 -1.0 255 255 255
8.96453 -0.46210 4.81946 0.0 0.0 -1.0 255 255 255
7.63552 -1.42132 6.18720 0.0 0.0 -1.0 255 255 255
9.78708 -1.45630 6.35919 0.0 0.0 -1.0 255 255 255
1.05368 3.18998 8.13791 0.0 0.0 -1.0 255 255 255
2.77167 1.31935 7.94369 0.0 0.0 -1.0 255 255 255
1.05368 3.18998 8.13791 0.0 0.0 -1.0 255 255 255
0.30104 0.99392 8.90532 0.0 0.0 -1.0 255 255 255
0.71152 2.99437 8.65829 0.0 0.0 -1.0 255 255 255
-0.00000 2.34384 8.81566 0.0 0.0 -1.0 255 255 255
2.14019 2.89273 5.74657 0.0 0.0 -1.0 255 255 255
0.93125 3.65994 7.75341 0.0 0.0 -1.0 255 255 255
0.79307 3.69772 5.68397 0.0 0.0 -1.0 255 255 255
2.04367 -2.27964 7.10214 0.0 0.0 -1.0 255 255 255
1.86607 -2.45392 5.46260 0.0 0.0 -1.0 255 255 255
2.04367 -2.27964 7.10214 0.0 0.0 -1.0 255 255 255
0.82209 -2.70224 6.35969 0.0 0.0 -1.0 255 255 255
0.41234 -1.31660 8.04260 0.0 0.0 -1.0 255 255 255
-0.00000 -2.63369 7.25318 0.0 0.0 -1.0 255 255 255
3.47276 -0.91296 7.93580 0.0 0.0 -1.0 255 255 255
0.30104 0.99392 8.90532 0.0 0.0 -1.0 255 255 255
2.77167 1.31935 7.94369 0.0 0.0 -1.0 255 255 255
2.56670 -2.11842 5.64629 0.0 0.0 -1.0 255 255 255
2.63438 -2.68960 5.10701 0.0 0.0 -1.0 255 255 255
2.56670 -2.11842 5.64629 0.0 0.0 -1.0 255 255 255
2.04367 -2.27964 7.10214 0.0 0.0 -1.0 255 255 255
3.92805 -1.61500 6.87258 0.0 0.0 -1.0 255 255 255
3.16966 1.69937 4.12455 0.0 0.0 -1.0 255 255 255
2.14019 2.89273 5.74657 0.0 0.0 -1.0 255 255 255
3.16966 1.69937 4.12455 0.0 0.0 -1.0 255 255 255
0.87775 2.59914 3.05746 0.0 0.0 -1.0 255 255 255
2.22146 1.04555 2.36909 0.0 0.0 -1.0 255 255 255
1.40133 1.97628 2.18883 0.0 0.0 -1.0 255 255 255
2.00137 0.73788 0.14255 0.0 0.0 -1.0 255 255 255
1.33291 1.37235 -0.17320 0.0 0.0 -1.0 255 255 255
2.09697 0.65358 -0.87871 0.0 0.0 -1.0 255 255 255
1.74939 1.22497 -1.21042 0.0 0.0 -1.0 255 255 255
0.55379 -0.76432 -1.25885 0.0 0.0 -1.0 255 255 255
-0.00000 -1.36237 -0.32811 0.0 0.0 -1.0 255 255 255
0.55379 -0.76432 -1.25885 0.0 0.0 -1.0 255 255 255
1.30292 -1.24302 0.14174 0.0 0.0 -1.0 255 255 255
2.03614 -0.62695 -0.88942 0.0 0.0 -1.0 255 255 255
1.96635 -0.47937 0.35265 0.0 0.0 -1.0 255 255 255
2.09697 0.65358 -0.87871 0.0 0.0 -1.0 255 255 255
2.00137 0.73788 0.14255 0.0 0.0 -1.0 255 255 255
-0.00000 2.02267 2.16759 0.0 0.0 -1.0 255 255 255
-1.33291 1.37235 -0.17320 0.0 0.0 -1.0 255 255 255
1.33291 1.37235 -0.17320 0.0 0.0 -1.0 255 255 255
-0.00000 1.38783 -0.71233 0.0 0.0 -1.0 255 255 255
0.52218 1.15875 -1.51654 0.0 0.0 -1.0 255 255 255
0.52218 1.15875 -1.51654 0.0 0.0 -1.0 255 255 255
1.74939 1.22497 -1.21042 0.0 0.0 -1.0 255 255 255
1.33291 1.37235 -0.17320 0.0 0.0 -1.0 255 255 255
7.63552 -1.42132 6.18720 0.0 0.0 -1.0 255 255 255
6.63825 -1.05853 7.60063 0.0 0.0 -1.0 255 255 255
7.63552 -1.42132 6.18720 0.0 0.0 -1.0 255 255 255
9.31274 -0.43636 7.51762 0.0 0.0 -1.0 255 255 255
9.78708 -1.45630 6.35919 0.0 0.0 -1.0 255 255 255
2.14019 2.89273 5.74657 0.0 0.0 -1.0 255 255 255
0.79307 3.69772 5.68397 0.0 0.0 -1.0 255 255 255
0.87775 2.59914 3.05746 0.0 0.0 -1.0 255 255 255
-0.00000 2.93918 2.86799 0.0 0.0 -1.0 255 255 255
-0.00000 2.02267 2.16759 0.0 0.0 -1.0 255 255 255
6.63825 -1.05853 7.60063 0.0 0.0 -1.0 255 255 255
7.63552 -1.42132 6.18720 0.0 0.0 -1.0 255 255 255
6.71623 -2.12481 6.27260 0.0 0.0 -1.0 255 255 255
5.19854 -0.76713 5.03277 0.0 0.0 -1.0 255 255 255
3.92805 -1.61500 6.87258 0.0 0.0 -1.0 255 255 255
2.56670 -2.11842 5.64629 0.0 0.0 -1.0 255 255 255
1.96635 -0.47937 0.35265 0.0 0.0 -1.0 255 255 255
1.30292 -1.24302 0.14174 0.0 0.0 -1.0 255 255 255
1.96635 -0.47937 0.35265 0.0 0.0 -1.0 255 255 255
1.56389 -1.21625 2.74370 0.0 0.0 -1.0 255 255 255
2.73312 0.03149 3.43091 0.0 0.0 -1.0 255 255 255
2.49045 -1.05095 3.55236 0.0 0.0 -1.0 255 255 255
5.19854 -0.76713 5.03277 0.0 0.0 -1.0 255 255 255
2.56670 -2.11842 5.64629 0.0 0.0 -1.0 255 255 255
6.63825 -1.05853 7.60063 0.0 0.0 -1.0 255 255 255
6.71623 -2.12481 6.27260 0.0 0.0 -1.0 255 255 255
6.63825 -1.05853 7.60063 0.0 0.0 -1.0 255 255 255
3.92805 -1.61500 6.87258 0.0 0.0 -1.0 255 255 255
5.78897 0.06165 8.09907 0.0 0.0 -1.0 255 255 255
3.47276 -0.91296 7.93580 0.0 0.0 -1.0 255 255 255
2.77167 1.31935 7.94369 0.0 0.0 -1.0 255 255 255
3.08381 1.05454 4.25682 0.0 0.0 -1.0 255 255 255
4.32969 1.35190 5.52046 0.0 0.0 -1.0 255 255 255
3.29982 1.99368 6.50131 0.0 0.0 -1.0 255 255 255
6.63825 -1.05853 7.60063 0.0 0.0 -1.0 255 255 255
5.78897 0.06165 8.09907 0.0 0.0 -1.0 255 255 255
10.02734 1.05292 7.52671 0.0 0.0 -1.0 255 255 255
6.64346 1.82467 6.33776 0.0 0.0 -1.0 255 255 255
12.34493 0.91203 5.34730 0.0 0.0 -1.0 255 255 255
6.63825 -1.05853 7.60063 0.0 0.0 -1.0 255 255 255
10.02734 1.05292 7.52671 0.0 0.0 -1.0 255 255 255
9.31274 -0.43636 7.51762 0.0 0.0 -1.0 255 255 255
12.35110 0.82384 7.37334 0.0 0.0 -1.0 255 255 255
12.47292 -0.91826 6.37945 0.0 0.0 -1.0 255 255 255
3.16966 1.69937 4.12455 0.0 0.0 -1.0 255 255 255
2.22146 1.04555 2.36909 0.0 0.0 -1.0 255 255 255
2.73312 0.03149 3.43091 0.0 0.0 -1.0 255 255 255
1.96635 -0.47937 0.35265 0.0 0.0 -1.0 255 255 255
2.63438 -2.68960 5.10701 0.0 0.0 -1.0 255 255 255
2.56670 -2.11842 5.64629 0.0 0.0 -1.0 255 255 255
2.63438 -2.68960 5.10701 0.0 0.0 -1.0 255 255 255
1.86607 -2.45392 5.46260 0.0 0.0 -1.0 255 255 255
2.04367 -2.27964 7.10214 0.0 0.0 -1.0 255 255 255
1.39801 3.14488 8.44962 0.0 0.0 -1.0 255 255 255
1.05368 3.18998 8.13791 0.0 0.0 -1.0 255 255 255
0.71152 2.99437 8.65829 0.0 0.0 -1.0 255 255 255
0.93125 3.65994 7.75341 0.0 0.0 -1.0 255 255 255
1.11675 3.52546 8.96098 0.0 0.0 -1.0 255 255 255
0.61106 3.56406 8.86469 0.0 0.0 -1.0 255 255 255
0.93125 3.65994 7.75341 0.0 0.0 -1.0 255 255 255
0.61106 3.56406 8.86469 0.0 0.0 -1.0 255 255 255
0.26397 4.38863 8.38351 0.0 0.0 -1.0 255 255 255
12.30369 1.50189 6.41841 0.0 0.0 -1.0 255 255 255
12.35110 0.82384 7.37334 0.0 0.0 -1.0 255 255 255
10.02734 1.05292 7.52671 0.0 0.0 -1.0 255 255 255
12.30369 1.50189 6.41841 0.0 0.0 -1.0 255 255 255
10.02734 1.05292 7.52671 0.0 0.0 -1.0 255 255 255
12.34493 0.91203 5.34730 0.0 0.0 -1.0 255 255 255
6.64346 1.82467 6.33776 0.0 0.0 -1.0 255 255 255
5.78897 0.06165 8.09907 0.0 0.0 -1.0 255 255 255
2.77167 1.31935 7.94369 0.0 0.0 -1.0 255 255 255
0.55379 -0.76432 -1.25885 0.0 0.0 -1.0 255 255 255
2.17939 -1.19488 -0.64659 0.0 0.0 -1.0 255 255 255
0.55379 -0.76432 -1.25885 0.0 0.0 -1.0 255 255 255
0.65981 -1.18704 -1.30567 0.0 0.0 -1.0 255 255 255
0.31344 1.44381 -1.53714 0.0 0.0 -1.0 255 255 255
0.24844 -0.17703 -3.29253 0.0 0.0 -1.0 255 255 255
0.37806 0.36607 -4.35490 0.0 0.0 -1.0 255 255 255
0.61709 -1.17052 -6.56828 0.0 0.0 -1.0 255 255 255
0.40192 -0.05219 -7.50786 0.0 0.0 -1.0 255 255 255
1.03757 -1.01716 -7.50134 0.0 0.0 -1.0 255 255 255
0.66408 -0.70439 -8.73330 0.0 0.0 -1.0 255 255 255
0.99695 -0.97233 -8.73330 0.0 0.0 -1.0 255 255 255
1.42488 -0.71624 -8.73330 0.0 0.0 -1.0 255 255 255
1.03757 -1.01716 -7.50134 0.0 0.0 -1.0 255 255 255
1.92805 -0.95304 -7.49776 0.0 0.0 -1.0 255 255 255
1.24906 -1.36679 -6.74599 0.0 0.0 -1.0 255 255 255
2.07539 -1.01674 -5.91961 0.0 0.0 -1.0 255 255 255
1.32886 -0.75591 -3.22821 0.0 0.0 -1.0 255 255 255
2.30145 -0.40601 -3.22096 0.0 0.0 -1.0 255 255 255
2.17939 -1.19488 -0.64659 0.0 0.0 -1.0 255 255 255
2.55056 0.68336 -0.38994 0.0 0.0 -1.0 255 255 255
0.55379 -0.76432 -1.25885 0.0 0.0 -1.0 255 255 255
1.99785 1.55734 -1.17151 0.0 0.0 -1.0 255 255 255
0.31344 1.44381 -1.53714 0.0 0.0 -1.0 255 255 255
0.89553 2.00678 -4.42613 0.0 0.0 -1.0 255 255 255
0.37806 0.36607 -4.35490 0.0 0.0 -1.0 255 255 255
0.81778 0.77483 -5.72771 0.0 0.0 -1.0 255 255 255
0.40192 -0.05219 -7.50786 0.0 0.0 -1.0 255 255 255
0.83327 1.54927 -7.68455 0.0 0.0 -1.0 255 255 255
0.30579 0.73050 -8.73330 0.0 0.0 -1.0 255 255 255
0.71217 1.65795 -8.73330 0.0 0.0 -1.0 255 255 255
2.16628 1.67852 -8.73330 0.0 0.0 -1.0 255 255 255
1.42488 1.88326 -8.73330 0.0 0.0 -1.0 255 255 255
1.97950 1.42293 -7.54947 0.0 0.0 -1.0 255 255 255
0.83327 1.54927 -7.68455 0.0 0.0 -1.0 255 255 255
1.42562 1.55355 -5.80461 0.0 0.0 -1.0 255 255 255
0.81778 0.77483 -5.72771 0.0 0.0 -1.0 255 255 255
0.89553 2.00678 -4.42613 0.0 0.0 -1.0 255 255 255
1.03757 -1.01716 -7.50134 0.0 0.0 -1.0 255 255 255
0.61709 -1.17052 -6.56828 0.0 0.0 -1.0 255 255 255
1.24906 -1.36679 -6.74599 0.0 0.0 -1.0 255 255 255
0.24844 -0.17703 -3.29253 0.0 0.0 -1.0 255 255 255
1.32886 -0.75591 -3.22821 0.0 0.0 -1.0 255 255 255
0.65981 -1.18704 -1.30567 0.0 0.0 -1.0 255 255 255
2.17939 -1.19488 -0.64659 0.0 0.0 -1.0 255 255 255
2.22146 1.04555 2.36909 0.0 0.0 -1.0 255 255 255
2.00137 0.73788 0.14255 0.0 0.0 -1.0 255 255 255
1.96635 -0.47937 0.35265 0.0 0.0 -1.0 255 255 255
2.55056 0.68336 -0.38994 0.0 0.0 -1.0 255 255 255
1.99785 1.55734 -1.17151 0.0 0.0 -1.0 255 255 255
1.90300 2.06424 -4.49220 0.0 0.0 -1.0 255 255 255
0.89553 2.00678 -4.42613 0.0 0.0 -1.0 255 255 255
1.42562 1.55355 -5.80461 0.0 0.0 -1.0 255 255 255
0.30104 0.99392 8.90532 0.0 0.0 -1.0 255 255 255
-0.00000 0.47907 9.43618 0.0 0.0 -1.0 255 255 255
-0.00000 0.88487 9.72231 0.0 0.0 -1.0 255 255 255
0.41234 -1.31660 8.04260 0.0 0.0 -1.0 255 255 255
-0.00000 -2.14659 8.10899 0.0 0.0 -1.0 255 255 255
-0.00000 -2.02685 8.60269 0.0 0.0 -1.0 255 255 255
0.76035 4.91353 6.61353 0.0 0.0 -1.0 255 255 255
-0.00000 5.04370 5.92114 0.0 0.0 -1.0 255 255 255
-0.00000 4.48086 5.76797 0.0 0.0 -1.0 255 255 255
-0.00000 2.93918 2.86799 0.0 0.0 -1.0 255 255 255
0.79307 3.69772 5.68397 0.0 0.0 -1.0 255 255 255
-0.00000 3.92340 4.39049 0.0 0.0 -1.0 255 255 255
2.04367 -2.27964 7.10214 0.0 0.0 -1.0 255 255 255
3.47276 -0.91296 7.93580 0.0 0.0 -1.0 255 255 255
3.92805 -1.61500 6.87258 0.0 0.0 -1.0 255 255 255
0.40192 -0.05219 -7.50786 0.0 0.0 -1.0 255 255 255
0.66408 -0.70439 -8.73330 0.0 0.0 -1.0 255 255 255
0.30146 -0.06882 -8.73330 0.0 0.0 -1.0 255 255 255
1.42488 -0.71624 -8.73330 0.0 0.0 -1.0 255 255 255
2.54830 -0.06882 -8.73330 0.0 0.0 -1.0 255 255 255
2.24897 -0.71796 -8.73330 0.0 0.0 -1.0 255 255 255
2.65870 0.56930 -7.82761 0.0 0.0 -1.0 255 255 255
1.92805 -0.95304 -7.49776 0.0 0.0 -1.0 255 255 255
2.39121 -0.05429 -7.21923 0.0 0.0 -1.0 255 255 255
2.07539 -1.01674 -5.91961 0.0 0.0 -1.0 255 255 255
2.43823 0.33757 -4.30105 0.0 0.0 -1.0 255 255 255
2.30145 -0.40601 -3.22096 0.0 0.0 -1.0 255 255 255
2.55056 0.68336 -0.38994 0.0 0.0 -1.0 255 255 255
2.16628 1.67852 -8.73330 0.0 0.0 -1.0 255 255 255
0.30579 0.73050 -8.73330 0.0 0.0 -1.0 255 255 255
2.16628 1.67852 -8.73330 0.0 0.0 -1.0 255 255 255
2.56205 0.74407 -8.73330 0.0 0.0 -1.0 255 255 255
2.65870 0.56930 -7.82761 0.0 0.0 -1.0 255 255 255
2.54830 -0.06882 -8.73330 0.0 0.0 -1.0 255 255 255
0.71217 1.65795 -8.73330 0.0 0.0 -1.0 255 255 255
1.42488 1.88326 -8.73330 0.0 0.0 -1.0 255 255 255
0.83327 1.54927 -7.68455 0.0 0.0 -1.0 255 255 255
0.30579 0.73050 -8.73330 0.0 0.0 -1.0 255 255 255
0.40192 -0.05219 -7.50786 0.0 0.0 -1.0 255 255 255
0.30146 -0.06882 -8.73330 0.0 0.0 -1.0 255 255 255
1.92805 -0.95304 -7.49776 0.0 0.0 -1.0 255 255 255
2.24897 -0.71796 -8.73330 0.0 0.0 -1.0 255 255 255
1.92805 -0.95304 -7.49776 0.0 0.0 -1.0 255 255 255
1.85280 -0.97233 -8.73330 0.0 0.0 -1.0 255 255 255
1.42488 -0.71624 -8.73330 0.0 0.0 -1.0 255 255 255
2.24897 -0.71796 -8.73330 0.0 0.0 -1.0 255 255 255
2.56205 0.74407 -8.73330 0.0 0.0 -1.0 255 255 255
0.30579 0.73050 -8.73330 0.0 0.0 -1.0 255 255 255
2.56205 0.74407 -8.73330 0.0 0.0 -1.0 255 255 255
0.30146 -0.06882 -8.73330 0.0 0.0 -1.0 255 255 255
2.54830 -0.06882 -8.73330 0.0 0.0 -1.0 255 255 255
2.16628 1.67852 -8.73330 0.0 0.0 -1.0 255 255 255
2.65870 0.56930 -7.82761 0.0 0.0 -1.0 255 255 255
1.97950 1.42293 -7.54947 0.0 0.0 -1.0 255 255 255
2.39121 -0.05429 -7.21923 0.0 0.0 -1.0 255 255 255
2.00860 0.72524 -5.73099 0.0 0.0 -1.0 255 255 255
2.43823 0.33757 -4.30105 0.0 0.0 -1.0 255 255 255
1.90300 2.06424 -4.49220 0.0 0.0 -1.0 255 255 255
2.55056 0.68336 -0.38994 0.0 0.0 -1.0 255 255 255
2.00860 0.72524 -5.73099 0.0 0.0 -1.0 255 255 255
1.90300 2.06424 -4.49220 0.0 0.0 -1.0 255 255 255
1.42562 1.55355 -5.80461 0.0 0.0 -1.0 255 255 255
1.42562 1.55355 -5.80461 0.0 0.0 -1.0 255 255 255
1.97950 1.42293 -7.54947 0.0 0.0 -1.0 255 255 255
2.00860 0.72524 -5.73099 0.0 0.0 -1.0 255 255 255
1.33291 1.37235 -0.17320 0.0 0.0 -1.0 255 255 255
1.40133 1.97628 2.18883 0.0 0.0 -1.0 255 255 255
-0.00000 2.02267 2.16759 0.0 0.0 -1.0 255 255 255
0.87775 2.59914 3.05746 0.0 0.0 -1.0 255 255 255
-2.56670 -2.11842 5.64629 0.0 0.0 -1.0 255 255 255
-2.63438 -2.68960 5.10701 0.0 0.0 -1.0 255 255 255
-1.86607 -2.45392 5.46260 0.0 0.0 -1.0 255 255 255
-0.00000 -2.14659 8.10899 0.0 0.0 -1.0 255 255 255
0.41234 -1.31660 8.04260 0.0 0.0 -1.0 255 255 255
-0.00000 -2.71315 7.84804 0.0 0.0 -1.0 255 255 255
-0.00000 -2.63369 7.25318 0.0 0.0 -1.0 255 255 255
-0.41234 -1.31660 8.04260 0.0 0.0 -1.0 255 255 255
-0.41234 -1.31660 8.04260 0.0 0.0 -1.0 255 255 255
-0.00000 -2.14659 8.10899 0.0 0.0 -1.0 255 255 255
-0.00000 -2.71315 7.84804 0.0 0.0 -1.0 255 255 255
-1.30292 -1.24302 0.14174 0.0 0.0 -1.0 255 255 255
-1.56389 -1.21625 2.74370 0.0 0.0 -1.0 255 255 255
-0.00000 -1.38938 2.68622 0.0 0.0 -1.0 255 255 255
-0.52218 1.15875 -1.51654 0.0 0.0 -1.0 255 255 255
-0.55379 -0.76432 -1.25885 0.0 0.0 -1.0 255 255 255
-0.00000 0.29848 -1.32828 0.0 0.0 -1.0 255 255 255
-2.22146 1.04555 2.36909 0.0 0.0 -1.0 255 255 255
-1.40133 1.97628 2.18883 0.0 0.0 -1.0 255 255 255
-0.87775 2.59914 3.05746 0.0 0.0 -1.0 255 255 255
13.23324 0.86680 7.79591 0.0 0.0 -1.0 255 255 255
13.10758 1.99186 5.60885 0.0 0.0 -1.0 255 255 255
13.34637 -0.84877 7.06370 0.0 0.0 -1.0 255 255 255
12.77364 0.43904 4.79974 0.0 0.0 -1.0 255 255 255
12.87538 -0.93205 5.21507 0.0 0.0 -1.0 255 255 255
-13.34637 -0.84877 7.06370 0.0 0.0 -1.0 255 255 255
-12.87538 -0.93205 5.21507 0.0 0.0 -1.0 255 255 255
-13.23324 0.86680 7.79591 0.0 0.0 -1.0 255 255 255
-12.77364 0.43904 4.79974 0.0 0.0 -1.0 255 255 255
-13.10758 1.99186 5.60885 0.0 0.0 -1.0 255 255 255
3 1 0 2
3 1 2 3
3 3 2 4
3 3 4 5
3 5 4 6
3 5 6 7
3 7 6 8
3 7 8 9
3 9 8 10
3 9 10 11
3 11 10 12
3 11 12 13
3 13 12 14
3 16 15 17
3 19 18 20
3 19 20 21
3 21 20 22
3 24 23 25
3 24 25 26
3 26 25 27
3 29 28 30
3 29 30 31
3 31 30 32
3 31 32 33
3 33 32 34
3 33 34 35
3 35 34 36
3 35 36 37
3 37 36 38
3 37 38 39
3 39 38 40
3 39 40 41
3 41 40 42
3 41 42 43
3 43 42 44
3 43 44 45
3 45 44 46
3 45 46 47
3 47 46 48
3 47 48 49
3 49 48 50
3 49 50 51
3 51 50 52
3 51 52 53
3 53 52 54
3 53 54 55
3 55 54 56
3 55 56 57
3 57 56 58
3 57 58 59
3 59 58 60
3 62 61 63
3 62 63 64
3 64 63 65
3 64 65 66
3 66 65 67
3 66 67 68
3 68 67 69
3 68 69 70
3 70 69 71
3 70 71 72
3 74 73 75
3 74 75 76
3 76 75 77
3 76 77 78
3 78 77 79
3 78 79 80
3 82 81 83
3 82 83 84
3 84 83 85
3 84 85 86
3 88 87 89
3 88 89 90
3 90 89 91
3 93 92 94
3 93 94 95
3 95 94 96
3 95 96 97
3 97 96 98
3 97 98 99
3 99 98 100
3 99 100 101
3 101 100 102
3 101 102 103
3 103 102 104
3 106 105 107
3 106 107 108
3 108 107 109
3 108 109 110
3 110 109 111
3 110 111 112
3 112 111 113
3 112 113 114
3 114 113 115
3 114 115 116
3 116 115 117
3 116 117 118
3 118 117 119
3 118 119 120
3 120 119 121
3 120 121 122
3 124 123 125
3 124 125 126
3 126 125 127
3 126 127 128
3 128 127 129
3 128 129 130
3 130 129 131
3 130 131 132
3 132 131 133
3 132 133 134
3 134 133 135
3 134 135 136
3 138 137 139
3 141 140 142
3 141 142 143
3 143 142 144
3 143 144 145
3 145 144 146
3 145 146 147
3 147 146 148
3 147 148 149
3 149 148 150
3 149 150 151
3 153 152 154
3 153 154 155
3 155 154 156
3 155 156 157
3 157 156 158
3 157 158 159
3 161 160 162
3 164 163 165
3 167 166 168
3 170 169 171
3 170 171 172
3 172 171 173
3 172 173 174
3 174 173 175
3 174 175 176
3 176 175 177
3 176 177 178
3 180 179 181
3 183 182 184
3 183 184 185
3 185 184 186
3 185 186 187
3 187 186 188
3 190 189 191
3 190 191 192
3 192 191 193
3 195 194 196
3 195 196 197
3 197 196 198
3 200 199 201
3 203 202 204
3 206 205 207
3 209 208 210
3 209 210 211
3 211 210 212
3 214 213 215
3 217 216 218
3 217 218 219
3 219 218 220
3 219 220 221
3 223 222 224
3 223 224 225
3 225 224 226
3 225 226 227
3 227 226 228
3 227 228 229
3 229 228 230
3 232 231 233
3 235 234 236
3 235 236 237
3 239 238 240
3 242 241 243
3 245 244 246
3 245 246 247
3 247 246 248
3 250 249 251
3 250 251 252
3 252 251 253
3 255 254 256
3 258 257 259
3 258 259 260
3 260 259 261
3 263 262 264
3 263 264 265
3 265 264 266
3 265 266 267
3 267 266 268
3 267 268 269
3 269 268 270
3 269 270 271
3 271 270 272
3 271 272 273
3 273 272 274
3 273 274 275
3 275 274 276
3 275 276 277
3 277 276 278
3 277 278 279
3 279 278 280
3 279 280 281
3 281 280 282
3 284 283 285
3 284 285 286
3 286 285 287
3 286 287 288
3 288 287 289
3 288 289 290
3 290 289 291
3 290 291 292
3 292 291 293
3 292 293 294
3 296 295 297
3 296 297 298
3 298 297 299
3 301 300 302
3 301 302 303
3 305 304 306
3 308 307 309
3 311 310 312
3 311 312 313
3 313 312 314
3 313 314 315
3 315 314 316
3 318 317 319
3 321 320 322
3 321 322 323
3 323 322 324
3 323 324 325
3 327 326 328
3 327 328 329
3 329 328 330
3 332 331 333
3 335 334 336
3 335 336 337
3 337 336 338
3 340 339 341
3 340 341 342
3 342 341 343
3 342 343 344
3 344 343 345
3 344 345 346
3 346 345 347
3 349 348 350
3 349 350 351
3 353 352 354
3 353 354 355
3 355 354 356
3 355 356 357
3 357 356 358
3 357 358 359
3 359 358 360
3 359 360 361
3 361 360 362
3 361 362 363
3 363 362 364
3 363 364 365
3 367 366 368
3 367 368 369
3 369 368 370
3 369 370 371
3 371 370 372
3 371 372 373
3 373 372 374
3 376 375 377
3 379 378 380
3 379 380 381
3 381 380 382
3 381 382 383
3 385 384 386
3 388 387 389
3 391 390 392
3 391 392 393
3 393 392 394
3 393 394 395
3 395 394 396
3 395 396 397
3 397 396 398
3 400 399 401
3 400 401 402
3 402 401 403
3 402 403 404
3 404 403 405
3 404 405 406
3 406 405 407
3 409 408 410
3 412 411 413
3 415 414 416
3 418 417 419
3 421 420 422
3 424 423 425
3 427 426 428
3 427 428 429
3 431 430 432
3 431 432 433
3 433 432 434
3 433 434 435
3 435 434 436
3 435 436 437
3 437 436 438
3 437 438 439
3 439 438 440
3 442 441 443
3 442 443 444
3 444 443 445
3 444 445 446
3 448 447 449
3 451 450 452
3 451 452 453
3 453 452 454
3 453 454 455
3 457 456 458
3 460 459 461
3 460 461 462
3 462 461 463
3 465 464 466
3 465 466 467
3 467 466 468
3 467 468 469
3 469 468 470
3 469 470 471
3 471 470 472
3 471 472 473
3 475 474 476
3 475 476 477
3 477 476 478
3 477 478 479
3 479 478 480
3 479 480 481
3 483 482 484
3 483 484 485
3 485 484 486
3 488 487 489
3 491 490 492
3 491 492 493
3 493 492 494
3 496 495 497
3 496 497 498
3 498 497 499
3 501 500 502
3 501 502 503
3 503 502 504
3 503 504 505
3 507 506 508
3 507 508 509
3 509 508 510
3 509 510 511
3 511 510 512
3 511 512 513
3 515 514 516
3 515 516 517
3 517 516 518
3 517 518 519
3 519 518 520
3 522 521 523
3 525 524 526
3 525 526 527
3 527 526 528
3 530 529 531
3 530 531 532
3 532 531 533
3 535 534 536
3 535 536 537
3 539 538 540
3 539 540 541
3 541 540 542
3 544 543 545
3 547 546 548
3 550 549 551
3 553 552 554
3 556 555 557
3 559 558 560
3 562 561 563
3 562 563 564
3 564 563 565
3 564 565 566
3 566 565 567
3 566 567 568
3 568 567 569
3 568 569 570
3 570 569 571
3 570 571 572
3 572 571 573
3 572 573 574
3 574 573 575
3 574 575 576
3 576 575 577
3 576 577 578
3 578 577 579
3 578 579 580
3 580 579 581
3 580 581 582
3 582 581 583
3 582 583 584
3 584 583 585
3 584 585 586
3 586 585 587
3 586 587 588
3 588 587 589
3 588 589 590
3 590 589 591
3 590 591 592
3 592 591 593
3 592 593 594
3 594 593 595
3 594 595 596
3 596 595 597
3 596 597 598
3 600 599 601
3 600 601 602
3 602 601 603
3 602 603 604
3 604 603 605
3 607 606 608
3 610 609 611
3 610 611 612
3 612 611 613
3 615 614 616
3 618 617 619
3 621 620 622
3 624 623 625
3 627 626 628
3 630 629 631
3 630 631 632
3 632 631 633
3 632 633 634
3 634 633 635
3 634 635 636
3 636 635 637
3 636 637 638
3 638 637 639
3 638 639 640
3 640 639 641
3 643 642 644
3 643 644 645
3 645 644 646
3 645 646 647
3 649 648 650
3 652 651 653
3 655 654 656
3 655 656 657
3 657 656 658
3 657 658 659
3 661 660 662
3 661 662 663
3 663 662 664
3 666 665 667
3 666 667 668
3 668 667 669
3 668 669 670
3 670 669 671
3 670 671 672
3 674 673 675
3 677 676 678
3 680 679 681
3 680 681 682
3 684 683 685
3 687 686 688
3 687 688 689
3 689 688 690
3 692 691 693
3 695 694 696
3 698 697 699
3 701 700 702
3 704 703 705
3 704 705 706
3 706 705 707
3 709 708 710
3 709 710 711
3 711 710 712
